<svg width="40" height="40" viewBox="0 0 40 40" fill="none" xmlns="http://www.w3.org/2000/svg">
    <g clip-path="url(#clip0)">
        <path d="M37.3837 6.92361C31.5386 5.40807 25.6592 3.04823 20.3811 0.0991697C20.1444 -0.0330175 19.8559 -0.0330956 19.619 0.0991697C14.1892 3.13276 8.62757 5.36502 2.6164 6.92369C2.27187 7.01306 2.03125 7.324 2.03125 7.67994V16.3045C2.03125 25.1744 6.35093 31.0418 9.97483 34.4021C13.8621 38.0066 18.3701 40.0001 20.0001 40.0001C21.6301 40.0001 26.1382 38.0066 30.0254 34.4021C33.6492 31.0418 37.969 25.1744 37.969 16.3045V7.67986C37.9689 7.32392 37.7283 7.01298 37.3837 6.92361ZM28.963 33.2561C26.8101 35.2524 24.718 36.5127 23.3419 37.2184C21.5982 38.1127 20.388 38.4374 20 38.4374C19.6121 38.4374 18.4019 38.1128 16.6582 37.2184C15.2822 36.5127 13.1901 35.2524 11.0371 33.2561C7.64147 30.1074 3.59367 24.6105 3.59367 16.3043V8.28189C9.3721 6.73502 14.75 4.56916 20.0001 1.67456C25.1171 4.49166 30.7678 6.76713 36.4063 8.28165V16.3043H36.4064C36.4063 24.6105 32.3586 30.1074 28.963 33.2561Z" fill="var(--primaryBackgroundColor)"/>
        <path d="M34.6714 9.01228C29.7233 7.57377 24.9108 5.61979 20.3678 3.20472C20.1383 3.08261 19.863 3.08284 19.6336 3.20519C15.0837 5.63034 10.2712 7.58463 5.32984 9.01377C4.9957 9.11041 4.76562 9.41635 4.76562 9.76424V16.3034C4.76562 19.3563 5.34414 22.2535 6.485 24.9145C7.62015 27.5622 9.31319 29.9786 11.5169 32.0968C13.0931 33.6116 14.913 34.9465 16.78 35.9571C17.1145 36.1382 18.8351 37.0511 19.8583 37.24C19.9051 37.2486 19.9525 37.253 20 37.253C20.0476 37.253 20.095 37.2486 20.1418 37.24C21.165 37.0511 22.8856 36.1382 23.2201 35.9571C25.0869 34.9465 26.9068 33.6116 28.4832 32.0968C30.6869 29.9787 32.3799 27.5623 33.5151 24.9145C34.656 22.2536 35.2345 19.3564 35.2345 16.3034V9.76252C35.2346 9.4151 35.005 9.10939 34.6714 9.01228ZM33.6721 16.3034C33.6721 22.0359 31.5621 26.9704 27.4005 30.9701C25.9241 32.389 24.2214 33.6383 22.4764 34.583C21.6821 35.0129 20.6098 35.5142 20 35.6716C19.3903 35.5142 18.318 35.0129 17.5238 34.583C15.7787 33.6383 14.076 32.389 12.5997 30.9701C8.4382 26.9705 6.32812 22.0359 6.32812 16.3034V10.3492C11.0433 8.94533 15.6384 7.0733 20.0015 4.77839C24.3575 7.06362 28.9521 8.93494 33.672 10.3467V16.3034H33.6721Z" fill="var(--primaryBackgroundColor)"/>
        <path d="M13.5182 27.9939L13.5026 27.9771C13.2135 27.6603 12.7224 27.6359 12.4032 27.9232C12.0825 28.2118 12.0564 28.7058 12.345 29.0265L12.3607 29.0433C12.5147 29.2119 12.7257 29.2977 12.9378 29.2977C13.1239 29.2977 13.3108 29.2314 13.4601 29.0972C13.7808 28.8086 13.8068 28.3145 13.5182 27.9939Z" fill="var(--primaryBackgroundColor)"/>
        <path d="M17.7314 31.5382C16.7903 30.9443 15.8841 30.2598 15.0382 29.5035C14.7166 29.2159 14.2227 29.2436 13.9351 29.5653C13.6476 29.887 13.6752 30.3808 13.997 30.6684C14.9073 31.4823 15.8833 32.2195 16.8977 32.8596C17.0271 32.9413 17.1712 32.9803 17.3138 32.9803C17.573 32.9803 17.8266 32.8514 17.9752 32.6159C18.2055 32.251 18.0964 31.7685 17.7314 31.5382Z" fill="var(--primaryBackgroundColor)"/>
        <path d="M24.1324 16.3335V13.7616C24.1324 11.4828 22.2785 9.62891 19.9996 9.62891C17.7208 9.62891 15.8669 11.4828 15.8669 13.7616V16.3335C14.9374 16.367 14.1914 17.1331 14.1914 18.0707V24.0683C14.1913 25.0271 14.9714 25.8071 15.9302 25.8071H24.0693C25.0281 25.8071 25.8082 25.0271 25.8082 24.0683V18.0707C25.8082 17.133 25.0621 16.3669 24.1324 16.3335ZM17.4294 13.7616C17.4294 12.3444 18.5824 11.1914 19.9997 11.1914C21.4169 11.1914 22.5698 12.3444 22.5698 13.7616V16.3319H17.4293V13.7616H17.4294ZM24.2456 24.0683C24.2456 24.164 24.1648 24.2447 24.0692 24.2447H15.9301C15.8344 24.2447 15.7537 24.164 15.7537 24.0683V18.0708H15.7537C15.7537 17.9751 15.8345 17.8944 15.9302 17.8944H16.648H23.3511H24.0692C24.1648 17.8944 24.2456 17.9751 24.2456 18.0708V24.0683Z" fill="var(--primaryBackgroundColor)"/>
        <path d="M20.0005 19.5039C19.3989 19.5039 18.9082 19.9946 18.9082 20.5963C18.9082 20.892 19.0272 21.1607 19.2193 21.3577V22.1223C19.2193 22.5537 19.5691 22.9035 20.0005 22.9035C20.432 22.9035 20.7818 22.5537 20.7818 22.1223V21.3577C20.9739 21.1606 21.0929 20.892 21.0929 20.5963C21.0929 19.9946 20.6022 19.5039 20.0005 19.5039Z" fill="var(--primaryBackgroundColor)"/>
    </g>
    <defs>
        <clipPath id="clip0">
            <rect width="40" height="40" fill="white"/>
        </clipPath>
    </defs>
</svg>