<svg width="80" height="80" viewBox="0 0 80 80" fill="none" xmlns="http://www.w3.org/2000/svg">
<path d="M40 0C17.944 0 0 17.944 0 40C0 62.056 17.944 80 40 80C62.056 80 80 62.056 80 40C80 17.944 62.0562 0 40 0ZM40 75.6756C30.2007 75.6756 21.3125 71.7037 14.8583 65.2863C12.281 62.7235 10.0931 59.77 8.38957 56.524C5.79521 51.581 4.32438 45.9593 4.32438 40C4.32438 20.3284 20.3284 4.32438 40 4.32438C49.3307 4.32438 57.8346 7.92659 64.1984 13.8115C67.4979 16.8624 70.2226 20.5262 72.1872 24.6214C74.4224 29.2807 75.6756 34.4967 75.6756 40C75.6756 59.6716 59.6716 75.6756 40 75.6756ZM24.9009 74.7021C24.9657 74.7305 25.0306 74.7594 25.096 74.7875C25.0306 74.7591 24.9657 74.7305 24.9009 74.7021Z" fill="#7963E0"/>
<path d="M26.622 35.6761C29.0103 35.6761 30.9464 33.74 30.9464 31.3517C30.9464 28.9634 29.0103 27.0273 26.622 27.0273C24.2337 27.0273 22.2976 28.9634 22.2976 31.3517C22.2976 33.74 24.2337 35.6761 26.622 35.6761Z" fill="#7963E0"/>
<path d="M53.3791 35.6761C55.7674 35.6761 57.7034 33.74 57.7034 31.3517C57.7034 28.9634 55.7674 27.0273 53.3791 27.0273C50.9908 27.0273 49.0547 28.9634 49.0547 31.3517C49.0547 33.74 50.9908 35.6761 53.3791 35.6761Z" fill="#7963E0"/>
<path d="M63.6667 20.5502L49.9719 14.6191L48.2534 18.5872L61.9482 24.5182L63.6667 20.5502Z" fill="#7963E0"/>
<path d="M18.0489 24.5188L31.7434 18.5879L30.0249 14.6198L16.3304 20.5507L18.0489 24.5188Z" fill="#7963E0"/>
<path d="M57.9051 54.8064C58.237 55.3945 58.5424 56.0059 58.814 56.6237L62.773 54.8842C62.4438 54.1353 62.0732 53.3942 61.6716 52.682C57.071 44.5227 48.0479 39.5624 38.6945 40.0483C29.4017 40.5292 20.9746 46.3525 17.2253 54.8842L21.1843 56.6242C24.2819 49.5755 31.2426 44.7644 38.9178 44.3671C46.6438 43.9662 54.1034 48.0641 57.9051 54.8064Z" fill="#7963E0"/>
</svg>