<svg width="400" height="400" viewBox="0 0 400 400" fill="none" xmlns="http://www.w3.org/2000/svg">
<g clip-path="url(#clip0_2512:48806)">
<rect opacity="0.5" x="21" y="364" width="354" height="64" rx="19.4908" fill="url(#paint0_radial_2512:48806)"/>
<rect width="400" height="400" rx="19.4908" fill="white"/>
<g style="mix-blend-mode:multiply">
<rect width="400" height="400" rx="19.4908" fill="#F40050"/>
</g>
<path d="M147.177 307.6L144.497 303.16C144.497 303.16 142.617 304.96 139.417 304.96C135.657 304.96 133.377 302.16 133.977 298C134.537 293.84 137.617 291.04 141.377 291.04C144.577 291.04 145.937 292.84 145.937 292.84L149.857 288.4C149.857 288.4 147.737 285.48 142.097 285.48C133.497 285.48 127.817 292.08 127.817 299.68C127.817 305.72 131.577 310.56 138.577 310.56C144.217 310.56 147.177 307.6 147.177 307.6ZM159.902 310.56C167.942 310.56 174.182 304 174.182 296.44C174.182 290.36 170.062 285.48 163.422 285.48C155.502 285.48 149.262 292 149.262 299.56C149.262 305.64 153.342 310.56 159.902 310.56ZM160.702 304.92C157.582 304.92 155.302 302.56 155.302 299C155.302 294.32 158.822 291.08 162.662 291.08C165.862 291.08 168.142 293.44 168.142 297C168.142 301.68 164.662 304.92 160.702 304.92ZM196.337 296.76L194.457 310H200.217L203.537 286H198.857L189.977 296.28L183.977 286H179.297L175.897 310H181.657L183.537 296.72L187.737 303.64H190.177L196.337 296.76ZM226.436 302.08C226.436 300.04 225.476 298.36 223.596 297.72L223.636 297.4C225.796 296.24 227.236 294.16 227.236 291.64C227.236 288.12 224.836 286 219.676 286H208.516L205.156 310H216.476C222.756 310 226.436 306.88 226.436 302.08ZM220.916 293.08C220.916 294.48 219.676 295.72 218.076 295.72H212.956L213.636 291H218.876C220.156 291 220.916 291.92 220.916 293.08ZM212.356 300.04H218.156C219.436 300.16 220.196 301.2 220.196 302.28C220.196 303.68 218.916 305 217.236 305H211.676L212.356 300.04ZM239.98 310.56C248.02 310.56 254.26 304 254.26 296.44C254.26 290.36 250.14 285.48 243.5 285.48C235.58 285.48 229.34 292 229.34 299.56C229.34 305.64 233.42 310.56 239.98 310.56ZM240.78 304.92C237.66 304.92 235.38 302.56 235.38 299C235.38 294.32 238.9 291.08 242.74 291.08C245.94 291.08 248.22 293.44 248.22 297C248.22 301.68 244.74 304.92 240.78 304.92ZM258.655 302.88L254.855 307.32C254.855 307.32 257.815 310.52 264.455 310.52C271.455 310.52 274.895 306.28 274.895 301.76C274.895 298.28 272.175 296.36 267.495 295C265.015 294.28 264.055 293.76 264.055 292.72C264.055 291.68 264.695 290.76 266.895 290.76C270.295 290.76 272.535 292.76 272.535 292.76L276.335 288.04C276.335 288.04 274.175 285.48 267.655 285.48C260.655 285.48 257.255 289.12 257.255 293.76C257.255 297.16 259.815 298.96 264.215 300.32C267.135 301.2 267.935 301.88 267.935 302.92C267.935 304.28 266.975 305.2 264.975 305.2C261.735 305.2 258.655 302.88 258.655 302.88ZM136.631 332.825C136.631 327.725 138.931 324.65 140.306 323.125L139.456 322.25C137.831 323.925 135.181 327.175 135.181 332.825C135.181 338.475 137.831 341.725 139.456 343.4L140.306 342.525C138.931 341 136.631 337.95 136.631 332.825ZM153.416 338.375L152.616 337.3C152.616 337.3 151.091 339 148.491 339C144.941 339 142.491 336.05 142.491 332.525C142.491 328.975 144.941 326.025 148.491 326.025C151.091 326.025 152.616 327.725 152.616 327.725L153.416 326.625C153.416 326.625 151.816 324.675 148.466 324.675C144.066 324.675 141.016 328.075 141.016 332.525C141.016 336.925 144.066 340.35 148.466 340.35C151.816 340.35 153.416 338.375 153.416 338.375ZM165.4 333.075V331.75H157.7V326.325H166.65V325H156.275V340H166.65V338.675H157.7V333.075H165.4ZM169.825 340H179.25V338.675H171.25V325H169.825V340ZM187.098 340.35C190.898 340.35 193.023 337.7 193.023 333.75V325H191.598V333.75C191.598 336.825 190.123 339 187.098 339C184.098 339 182.598 336.825 182.598 333.75V325H181.173V333.75C181.173 337.7 183.348 340.35 187.098 340.35ZM207.509 332V327.325H206.284V332H201.734V333.2H206.284V337.7H207.509V333.2H212.034V332H207.509ZM232.698 335.9C232.698 334.05 231.498 332.85 229.823 332.425V332.35C231.273 331.875 232.198 330.75 232.198 329.05C232.198 326.375 230.273 325 227.148 325H220.973V340H227.498C230.548 340 232.698 338.7 232.698 335.9ZM230.748 329.1C230.748 330.775 229.373 331.775 227.148 331.775H222.398V326.325H227.148C229.323 326.325 230.748 327.125 230.748 329.1ZM222.398 333.1H227.623C229.648 333.15 231.223 334.05 231.223 335.825C231.223 337.775 229.623 338.675 227.523 338.675H222.398V333.1ZM237.412 340V325H235.987V340H237.412ZM253.026 338.375L252.226 337.3C252.226 337.3 250.701 339 248.101 339C244.551 339 242.101 336.05 242.101 332.525C242.101 328.975 244.551 326.025 248.101 326.025C250.701 326.025 252.226 327.725 252.226 327.725L253.026 326.625C253.026 326.625 251.426 324.675 248.076 324.675C243.676 324.675 240.626 328.075 240.626 332.525C240.626 336.925 243.676 340.35 248.076 340.35C251.426 340.35 253.026 338.375 253.026 338.375ZM257.31 340V325H255.885V340H257.31ZM263.351 332.825C263.351 337.95 261.076 341 259.701 342.525L260.551 343.4C262.176 341.725 264.826 338.475 264.826 332.825C264.826 327.175 262.176 323.925 260.551 322.25L259.701 323.125C261.076 324.65 263.351 327.725 263.351 332.825Z" fill="white"/>
<g clip-path="url(#clip1_2512:48806)">
<path d="M126.473 224.672H145.875V226.828H126.473V224.672Z" fill="white"/>
<path d="M168.511 176.17H155.576V171.858C155.573 168.883 153.162 166.472 150.187 166.469H122.162C119.187 166.472 116.776 168.883 116.772 171.858V225.752C116.776 228.727 119.187 231.138 122.162 231.142H150.187C153.162 231.138 155.573 228.727 155.576 225.752V204.195H168.511C171.486 204.191 173.897 201.78 173.9 198.805V181.559C173.897 178.584 171.486 176.173 168.511 176.17ZM143.72 168.625V170.78C143.72 171.376 143.237 171.858 142.642 171.858H129.707C129.112 171.858 128.629 171.376 128.629 170.78V168.625H143.72ZM153.42 225.752C153.42 227.538 151.973 228.986 150.187 228.986H122.162C120.376 228.986 118.928 227.538 118.928 225.752V171.858C118.928 170.072 120.376 168.625 122.162 168.625H126.473V170.78C126.473 172.566 127.921 174.014 129.707 174.014H142.642C144.427 174.014 145.875 172.566 145.875 170.78V168.625H150.187C151.973 168.625 153.42 170.072 153.42 171.858V176.17H140.486C137.511 176.173 135.1 178.584 135.096 181.559V198.805C135.1 201.78 137.511 204.191 140.486 204.195H143.72V212.159L151.804 204.195H153.42V225.752ZM171.744 198.805C171.744 200.591 170.297 202.039 168.511 202.039H150.92L145.875 207.009V202.039H140.486C138.7 202.039 137.252 200.591 137.252 198.805V181.559C137.252 179.773 138.7 178.325 140.486 178.325H168.511C170.297 178.325 171.744 179.773 171.744 181.559V198.805Z" fill="white"/>
<path d="M141.564 182.637H145.876V184.792H141.564V182.637Z" fill="white"/>
<path d="M149.108 182.637H167.432V184.792H149.108V182.637Z" fill="white"/>
<path d="M141.564 189.102H145.876V191.257H141.564V189.102Z" fill="white"/>
<path d="M149.108 189.102H167.432V191.257H149.108V189.102Z" fill="white"/>
<path d="M141.564 195.57H145.876V197.726H141.564V195.57Z" fill="white"/>
<path d="M149.108 195.57H167.432V197.726H149.108V195.57Z" fill="white"/>
</g>
<g clip-path="url(#clip2_2512:48806)">
<path d="M219.056 225.761C219.7 225.875 220.314 225.446 220.429 224.802C220.543 224.158 220.114 223.544 219.47 223.429C212.55 222.199 207.528 216.196 207.528 209.155C207.528 201.161 214.031 194.657 222.026 194.657C223.933 194.657 225.754 195.028 227.424 195.7L226.701 197.146C225.25 196.58 223.675 196.265 222.026 196.265C214.918 196.265 209.136 202.048 209.136 209.155C209.136 216.263 214.918 222.045 222.026 222.045C228.734 222.045 234.259 216.894 234.859 210.34H236.474C235.947 216.86 231.11 222.269 224.582 223.429C223.938 223.544 223.509 224.158 223.623 224.802C223.725 225.376 224.224 225.779 224.788 225.779C224.856 225.779 224.926 225.773 224.996 225.761C231.63 224.582 236.762 219.633 238.365 213.346C239.104 214.028 240.023 214.517 241.042 214.733V217.153H240.005C239.351 217.153 238.821 217.683 238.821 218.337C238.821 218.991 239.351 219.521 240.005 219.521H244.448C245.102 219.521 245.632 218.991 245.632 218.337C245.632 217.683 245.102 217.153 244.448 217.153H243.411V214.733C245.988 214.186 247.929 211.893 247.929 209.155C247.929 207.879 247.507 206.7 246.796 205.749L260.803 190.234L262.138 193.809C256.32 196.472 252.267 202.349 252.267 209.155C252.267 218.455 259.833 226.022 269.134 226.022C278.434 226.022 286 218.455 286 209.155C286 199.855 278.434 192.288 269.134 192.288C267.475 192.288 265.872 192.53 264.356 192.979L260.303 182.123H267.087C267.555 183.263 268.676 184.068 269.982 184.068C270.235 184.068 270.441 184.274 270.441 184.527C270.441 184.781 270.235 184.987 269.982 184.987H268.54C266.815 184.987 265.412 186.391 265.412 188.116C265.412 189.841 266.815 191.244 268.54 191.244H269.982C273.686 191.244 276.699 188.231 276.699 184.527C276.699 180.823 273.686 177.81 269.982 177.81C268.676 177.81 267.555 178.615 267.087 179.755H258.596C257.787 179.755 257.194 180.567 257.487 181.353L258.688 184.569H234.537L233.783 182.55C234.264 182.252 234.673 181.837 234.961 181.33C235.151 180.996 235.507 180.789 235.891 180.789H240.927C242.32 180.789 243.27 179.375 242.745 178.085L242.745 178.085C241.936 176.099 240.027 174.816 237.883 174.816H225.751C224.133 174.816 222.817 176.133 222.817 177.751C222.817 180.684 225.204 183.07 228.137 183.07H231.449L232.426 185.685L228.485 193.575C226.494 192.746 224.313 192.288 222.026 192.288C212.726 192.289 205.159 199.855 205.159 209.155C205.159 217.346 211.003 224.33 219.056 225.761ZM269.134 194.657C277.128 194.657 283.632 201.161 283.632 209.155C283.632 217.15 277.128 223.654 269.134 223.654C261.139 223.654 254.635 217.15 254.635 209.155C254.635 203.364 258.049 198.356 262.97 196.035L263.534 197.547C259.224 199.634 256.244 204.053 256.244 209.155C256.244 216.263 262.026 222.045 269.134 222.045C275.105 222.045 280.256 217.996 281.659 212.197C281.813 211.562 281.423 210.922 280.787 210.768C280.151 210.613 279.512 211.004 279.358 211.64C278.212 216.372 274.008 219.677 269.134 219.677C263.332 219.677 258.612 214.957 258.612 209.155C258.612 205.068 260.956 201.521 264.368 199.779L266.894 206.543C266.158 207.175 265.691 208.111 265.691 209.155C265.691 211.054 267.235 212.599 269.134 212.599C271.032 212.599 272.577 211.054 272.577 209.155C272.577 207.257 271.032 205.712 269.134 205.712C269.126 205.712 269.119 205.713 269.112 205.713L266.586 198.947C267.402 198.743 268.255 198.633 269.134 198.633C274.008 198.633 278.212 201.939 279.358 206.671C279.512 207.306 280.151 207.697 280.787 207.543C281.423 207.389 281.814 206.749 281.66 206.113C280.256 200.315 275.105 196.265 269.134 196.265C267.964 196.265 266.831 196.424 265.753 196.718L265.188 195.203C266.442 194.847 267.766 194.657 269.134 194.657ZM269.134 208.081C269.726 208.081 270.209 208.563 270.209 209.156C270.209 209.748 269.726 210.23 269.134 210.23C268.541 210.23 268.059 209.748 268.059 209.156C268.059 208.563 268.541 208.081 269.134 208.081ZM229.541 196.761C233.406 199.113 236.09 203.222 236.476 207.971H234.859C234.482 203.851 232.159 200.287 228.818 198.207L229.541 196.761ZM225.259 207.971C225.097 207.53 224.846 207.131 224.529 206.795L227.755 200.337C230.324 202.012 232.12 204.776 232.479 207.971H225.259ZM222.026 208.081C222.618 208.081 223.101 208.563 223.101 209.156C223.101 209.748 222.618 210.23 222.026 210.23C221.433 210.23 220.951 209.748 220.951 209.156C220.951 208.563 221.433 208.081 222.026 208.081ZM222.026 219.677C216.224 219.677 211.504 214.957 211.504 209.155C211.504 203.354 216.224 198.634 222.026 198.634C223.295 198.634 224.511 198.859 225.639 199.273L222.411 205.734C222.284 205.72 222.156 205.712 222.026 205.712C220.127 205.712 218.583 207.257 218.583 209.155C218.583 211.054 220.127 212.599 222.026 212.599C223.509 212.599 224.775 211.657 225.259 210.34H232.479C231.888 215.585 227.427 219.677 222.026 219.677ZM243.411 212.268V209.155C243.411 208.501 242.881 207.971 242.227 207.971C241.572 207.971 241.042 208.501 241.042 209.155V212.268C239.788 211.789 238.893 210.576 238.893 209.155C238.893 207.317 240.388 205.822 242.227 205.822C244.065 205.822 245.56 207.317 245.56 209.155C245.56 210.576 244.665 211.789 243.411 212.268ZM269.982 180.179C272.38 180.179 274.33 182.13 274.33 184.528C274.33 186.926 272.38 188.876 269.982 188.876H268.54C268.121 188.876 267.78 188.535 267.78 188.116C267.78 187.697 268.121 187.356 268.54 187.356H269.982C271.541 187.356 272.81 186.087 272.81 184.528C272.81 182.968 271.541 181.7 269.982 181.7C269.562 181.7 269.221 181.359 269.221 180.94C269.221 180.52 269.562 180.179 269.982 180.179ZM259.572 186.938L259.87 187.735L245.017 204.185C244.192 203.72 243.24 203.453 242.227 203.453C242.016 203.453 241.808 203.466 241.603 203.488L235.422 186.938H259.572V186.938ZM225.186 177.751C225.186 177.439 225.439 177.185 225.751 177.185H237.883C238.844 177.185 239.719 177.655 240.249 178.421H235.891C234.657 178.421 233.511 179.088 232.901 180.161C232.712 180.495 232.355 180.702 231.971 180.702H228.136C226.509 180.702 225.186 179.378 225.186 177.751ZM233.558 188.719L239.353 204.234C238.997 204.442 238.667 204.687 238.366 204.964C237.242 200.585 234.398 196.889 230.602 194.637L233.558 188.719Z" fill="white"/>
</g>
<path d="M197.074 200.711H190.196V208.357H187.751V200.711H180.906V198.311H187.751V190.719H190.196V198.311H197.074V200.711Z" fill="white"/>
<mask id="mask0_2512:48806" style="mask-type:alpha" maskUnits="userSpaceOnUse" x="0" y="0" width="400" height="400">
<rect width="400" height="400" rx="19.4908" fill="#F40050"/>
</mask>
<g mask="url(#mask0_2512:48806)">
<rect x="-205" y="-91" width="403" height="217" rx="108.5" fill="#00D9FC"/>
</g>
<path d="M59.86 43.645V39.025H44.515V29.84H62.665V25H39.07V58H44.515V43.645H59.86ZM81.86 34.9V48.43C81.86 50.795 80.1 54.04 76.195 54.04C72.62 54.04 70.915 51.29 70.915 47.66V34.9H65.525V48.155C65.525 54.37 68.99 58.55 74.985 58.55C79.66 58.55 81.75 56.02 82.575 54.81H82.795L83.73 58H87.25V34.9H81.86ZM93.9471 24.725V58H99.3371V24.725H93.9471ZM106.139 24.725V58H111.529V24.725H106.139Z" fill="#100423"/>
<path d="M35.45 80V82.64H39.38V98H42.35V80H35.45ZM53.5543 98.42C58.7143 98.42 61.4443 94.1 61.4443 89.03C61.4443 83.9 58.7143 79.61 53.5543 79.61C48.4243 79.61 45.6943 83.9 45.6943 89.03C45.6943 94.1 48.4243 98.42 53.5543 98.42ZM53.5543 95.54C50.4043 95.54 48.7243 92.72 48.7243 89.03C48.7243 85.31 50.4043 82.46 53.5543 82.46C56.7343 82.46 58.3843 85.31 58.3843 89.03C58.3843 92.72 56.7343 95.54 53.5543 95.54ZM67.8448 79.61C65.2948 79.61 63.8548 81.71 63.8548 84.08C63.8548 86.45 65.2948 88.58 67.8448 88.58C70.3948 88.58 71.8348 86.45 71.8348 84.08C71.8348 81.71 70.3948 79.61 67.8448 79.61ZM81.1048 80H78.3448L64.0648 98H66.7948L81.1048 80ZM67.8448 81.53C69.0148 81.53 69.6148 82.52 69.6148 84.08C69.6148 85.64 69.0148 86.63 67.8448 86.63C66.6748 86.63 66.0748 85.64 66.0748 84.08C66.0748 82.52 66.6748 81.53 67.8448 81.53ZM77.4748 89.27C74.9548 89.27 73.4848 91.37 73.4848 93.77C73.4848 96.11 74.9548 98.24 77.4748 98.24C80.0248 98.24 81.4948 96.11 81.4948 93.77C81.4948 91.37 80.0248 89.27 77.4748 89.27ZM77.4748 91.19C78.6448 91.19 79.2448 92.18 79.2448 93.77C79.2448 95.27 78.6448 96.29 77.4748 96.29C76.3348 96.29 75.7048 95.27 75.7048 93.77C75.7048 92.18 76.3348 91.19 77.4748 91.19ZM99.1334 98.42C104.593 98.42 108.163 94.22 108.163 89.03C108.163 83.78 104.593 79.61 99.1334 79.61C93.7034 79.61 90.1334 83.78 90.1334 89.03C90.1334 94.22 93.7034 98.42 99.1334 98.42ZM99.1334 95.54C95.5934 95.54 93.1934 92.72 93.1934 89.03C93.1934 85.31 95.5934 82.46 99.1334 82.46C102.703 82.46 105.133 85.31 105.133 89.03C105.133 92.72 102.703 95.54 99.1334 95.54ZM122.828 90.17V87.65H114.458V82.64H124.358V80H111.488V98H114.458V90.17H122.828ZM138.824 90.17V87.65H130.454V82.64H140.354V80H127.484V98H130.454V90.17H138.824Z" fill="#100423"/>
</g>
<defs>
<radialGradient id="paint0_radial_2512:48806" cx="0" cy="0" r="1" gradientUnits="userSpaceOnUse" gradientTransform="translate(198 396) rotate(90) scale(32 177)">
<stop stop-color="#C4C4C4"/>
<stop offset="1" stop-color="#7963E0" stop-opacity="0"/>
</radialGradient>
<clipPath id="clip0_2512:48806">
<rect width="400" height="400" fill="white"/>
</clipPath>
<clipPath id="clip1_2512:48806">
<rect width="64.6729" height="64.6729" fill="white" transform="translate(113 166.469)"/>
</clipPath>
<clipPath id="clip2_2512:48806">
<rect width="80.8411" height="80.8411" fill="white" transform="translate(205.159 160)"/>
</clipPath>
</defs>
</svg>
