<svg width="400" height="400" viewBox="0 0 400 400" fill="none" xmlns="http://www.w3.org/2000/svg">
    <g clip-path="url(#clip0_2512:48804)">
        <rect opacity="0.5" x="21" y="364" width="354" height="64" rx="19.4908" fill="url(#paint0_radial_2512:48804)"/>
        <rect width="400" height="400" rx="19.4908" fill="white"/>
        <g style="mix-blend-mode:multiply">
            <rect width="400" height="400" rx="19.4908" fill="#F40050"/>
        </g>
        <mask id="mask0_2512:48804" style="mask-type:alpha" maskUnits="userSpaceOnUse" x="0" y="0" width="400" height="400">
            <rect width="400" height="400" rx="19.4908" fill="#F40050"/>
        </mask>
        <g mask="url(#mask0_2512:48804)">
            <rect x="190.816" y="46.9609" width="403" height="217" rx="108.5" transform="rotate(-45 190.816 46.9609)" fill="#7963E0"/>
        </g>
        <path d="M122.704 325.6L120.024 321.16C120.024 321.16 118.144 322.96 114.944 322.96C111.184 322.96 108.904 320.16 109.504 316C110.064 311.84 113.144 309.04 116.904 309.04C120.104 309.04 121.464 310.84 121.464 310.84L125.384 306.4C125.384 306.4 123.264 303.48 117.624 303.48C109.024 303.48 103.344 310.08 103.344 317.68C103.344 323.72 107.104 328.56 114.104 328.56C119.744 328.56 122.704 325.6 122.704 325.6ZM142.174 318.12L142.814 313.56H133.054L133.694 309H145.334L146.014 304H128.574L125.214 328H142.654L143.374 323H131.734L132.414 318.12H142.174ZM146.543 328H163.063L163.783 323H153.063L155.703 304H149.903L146.543 328ZM175.845 328.56C182.485 328.56 187.165 323.84 188.045 317.64L189.965 304H184.165L182.245 317.64C181.805 320.64 180.005 322.92 176.645 322.92C173.405 322.92 172.125 320.64 172.565 317.64L174.485 304H168.685L166.765 317.64C165.885 323.84 169.365 328.56 175.845 328.56ZM191.191 328H207.711L208.431 323H197.711L200.351 304H194.551L191.191 328ZM233.069 328L227.269 304H220.949L208.429 328H214.669L216.749 323.68H225.949L226.829 328H233.069ZM218.949 319.12L223.229 310.24L225.029 319.12H218.949ZM249.135 304H238.535L235.175 328H240.975L242.095 320.12H245.815L249.695 328H255.935L255.975 327.6L251.695 319.64L251.775 319.2C255.135 317.76 257.335 314.84 257.335 311.12C257.335 306.96 254.135 304 249.135 304ZM251.295 311.64C251.295 313.96 249.455 315.2 247.215 315.2H242.775L243.655 309H248.055C249.975 309 251.295 309.88 251.295 311.64ZM276.12 318.12L276.76 313.56H267L267.64 309H279.28L279.96 304H262.52L259.16 328H276.6L277.32 323H265.68L266.36 318.12H276.12ZM283.128 320.88L279.328 325.32C279.328 325.32 282.288 328.52 288.928 328.52C295.928 328.52 299.368 324.28 299.368 319.76C299.368 316.28 296.648 314.36 291.968 313C289.488 312.28 288.528 311.76 288.528 310.72C288.528 309.68 289.168 308.76 291.368 308.76C294.768 308.76 297.008 310.76 297.008 310.76L300.808 306.04C300.808 306.04 298.648 303.48 292.128 303.48C285.128 303.48 281.728 307.12 281.728 311.76C281.728 315.16 284.288 316.96 288.688 318.32C291.608 319.2 292.408 319.88 292.408 320.92C292.408 322.28 291.448 323.2 289.448 323.2C286.208 323.2 283.128 320.88 283.128 320.88Z" fill="white"/>
        <path d="M176.668 232H200.668V234.667H176.668V232Z" fill="white"/>
        <path d="M228.667 172H212.667V166.667C212.662 162.986 209.681 160.005 206 160H171.334C167.653 160.005 164.672 162.986 164.667 166.667V233.333C164.672 237.014 167.653 239.995 171.334 240H206C209.681 239.995 212.662 237.014 212.667 233.333V206.667H228.667C232.347 206.662 235.329 203.68 235.334 200V178.667C235.329 174.986 232.347 172.005 228.667 172ZM198 162.667V165.333C198 166.07 197.403 166.667 196.667 166.667H180.667C179.931 166.667 179.334 166.07 179.334 165.333V162.667H198ZM210 233.333C210 235.542 208.209 237.333 206 237.333H171.334C169.125 237.333 167.334 235.542 167.334 233.333V166.667C167.334 164.458 169.125 162.667 171.334 162.667H176.667V165.333C176.667 167.542 178.458 169.333 180.667 169.333H196.667C198.876 169.333 200.667 167.542 200.667 165.333V162.667H206C208.209 162.667 210 164.458 210 166.667V172H194C190.32 172.005 187.338 174.986 187.334 178.667V200C187.338 203.68 190.32 206.662 194 206.667H198V216.519L208 206.667H210V233.333ZM232.667 200C232.667 202.209 230.876 204 228.667 204H206.907L200.667 210.148V204H194C191.791 204 190 202.209 190 200V178.667C190 176.458 191.791 174.667 194 174.667H228.667C230.876 174.667 232.667 176.458 232.667 178.667V200Z" fill="white"/>
        <path d="M195.333 180H200.666V182.667H195.333V180Z" fill="white"/>
        <path d="M204.667 180H227.334V182.667H204.667V180Z" fill="white"/>
        <path d="M195.333 188H200.666V190.667H195.333V188Z" fill="white"/>
        <path d="M204.667 188H227.334V190.667H204.667V188Z" fill="white"/>
        <path d="M195.333 196H200.666V198.667H195.333V196Z" fill="white"/>
        <path d="M204.667 196H227.334V198.667H204.667V196Z" fill="white"/>
    </g>
    <defs>
        <radialGradient id="paint0_radial_2512:48804" cx="0" cy="0" r="1" gradientUnits="userSpaceOnUse" gradientTransform="translate(198 396) rotate(90) scale(32 177)">
            <stop stop-color="#C4C4C4"/>
            <stop offset="1" stop-color="#7963E0" stop-opacity="0"/>
        </radialGradient>
        <clipPath id="clip0_2512:48804">
            <rect width="400" height="400" fill="white"/>
        </clipPath>
    </defs>
</svg>
