<svg width="22" height="25" viewBox="0 0 22 25" fill="none" xmlns="http://www.w3.org/2000/svg">
<path d="M2.19727 17.627H4.39453V19.0918H5.85938V8.83789H4.39453V10.3027H2.92969V9.57031C2.92969 5.10093 6.5439 1.46484 10.9863 1.46484C15.4288 1.46484 19.043 5.10093 19.043 9.57031V10.3027H17.5781V8.83789H16.1133V19.0918H17.5781V17.627H19.043V19.873C19.043 21.0846 18.0573 22.0703 16.8457 22.0703H13.0576C12.7553 21.2178 11.9412 20.6055 10.9863 20.6055C9.77476 20.6055 8.78906 21.5912 8.78906 22.8027C8.78906 24.0143 9.77476 25 10.9863 25C11.9412 25 12.7553 24.3876 13.0576 23.5352H16.8457C18.865 23.5352 20.5078 21.8923 20.5078 19.873V17.501C21.3603 17.1986 21.9727 16.3845 21.9727 15.4297V12.5C21.9727 11.5452 21.3603 10.7311 20.5078 10.4287V9.57031C20.5078 4.29321 16.2365 0 10.9863 0C5.73618 0 1.46484 4.29321 1.46484 9.57031V10.4288C0.612354 10.7311 0 11.5452 0 12.5V15.4297C0 16.6413 0.985693 17.627 2.19727 17.627ZM10.9863 23.5352C10.5825 23.5352 10.2539 23.2066 10.2539 22.8027C10.2539 22.3989 10.5825 22.0703 10.9863 22.0703C11.3902 22.0703 11.7188 22.3989 11.7188 22.8027C11.7188 23.2066 11.3902 23.5352 10.9863 23.5352ZM20.5078 12.5V15.4297C20.5078 15.8335 20.1792 16.1621 19.7754 16.1621H17.5781V11.7676H19.7754C20.1792 11.7676 20.5078 12.0961 20.5078 12.5ZM1.46484 12.5C1.46484 12.0961 1.79341 11.7676 2.19727 11.7676H4.39453V16.1621H2.19727C1.79341 16.1621 1.46484 15.8335 1.46484 15.4297V12.5Z" fill="var(--primaryBackgroundColor)"/>
</svg>
