<svg width="23" height="25" viewBox="0 0 23 25" fill="none" xmlns="http://www.w3.org/2000/svg">
<path d="M21.7731 4.31695C18.3334 3.37447 14.8735 1.90694 11.7674 0.0730589C11.6024 -0.024353 11.3977 -0.024353 11.2327 0.0730589C8.03705 1.95963 4.7641 3.34776 1.22676 4.31695C0.998242 4.3795 0.839844 4.58721 0.839844 4.82417V10.1975C0.839844 15.7308 3.39252 19.3935 5.53402 21.4917C7.83949 23.7507 10.525 25 11.5001 25C12.475 25 15.1606 23.7507 17.466 21.4917C19.6075 19.3936 22.16 15.7309 22.16 10.1975V4.82412C22.16 4.58721 22.0016 4.3795 21.7731 4.31695ZM21.1083 10.1975C21.1083 15.3656 18.7274 18.7833 16.7299 20.7404C14.4628 22.9618 12.0388 23.9482 11.5001 23.9482C10.9614 23.9482 8.53724 22.9618 6.27006 20.7404C4.27265 18.7832 1.89165 15.3656 1.89165 10.1975V5.22334C5.27436 4.2629 8.42464 2.92252 11.5002 1.13526C14.4989 2.8751 17.8064 4.28213 21.1083 5.22315V10.1975Z" fill="var(--primaryBackgroundColor)"/>
<path d="M6.83843 5.16532C6.73198 4.89506 6.42666 4.7623 6.15635 4.86879C5.21689 5.23896 4.25264 5.57968 3.29038 5.88153C3.07109 5.95038 2.92188 6.15351 2.92188 6.38329V8.4141C2.92188 8.70453 3.15737 8.93998 3.44775 8.93998C3.73813 8.93998 3.97363 8.70453 3.97363 8.4141V6.76762C4.83686 6.48832 5.69917 6.17938 6.54189 5.84731C6.81216 5.74091 6.94492 5.43559 6.83843 5.16532Z" fill="var(--primaryBackgroundColor)"/>
<path d="M7.83762 5.26597C7.90818 5.26597 7.97981 5.25176 8.04851 5.22178L8.05818 5.21758C8.32424 5.10098 8.44406 4.79126 8.32746 4.5253C8.21076 4.25923 7.89929 4.13887 7.63352 4.25538L7.62503 4.25904C7.35882 4.3753 7.2386 4.68477 7.35486 4.95088C7.44114 5.14844 7.63474 5.26597 7.83762 5.26597Z" fill="var(--primaryBackgroundColor)"/>
<path d="M17.7652 16.9568C17.5222 16.7979 17.1963 16.8663 17.0373 17.1094C16.6039 17.7726 16.0955 18.4078 15.526 18.997C15.0576 19.4815 14.5501 19.933 14.0175 20.339C13.7866 20.5151 13.7422 20.8451 13.9182 21.0761C14.0218 21.2118 14.1784 21.2832 14.3368 21.2832C14.448 21.2832 14.5601 21.2481 14.6553 21.1754C15.2297 20.7374 15.7771 20.2504 16.2821 19.7281C16.8979 19.0911 17.4482 18.4037 17.9178 17.6847C18.0767 17.4415 18.0083 17.1156 17.7652 16.9568Z" fill="var(--primaryBackgroundColor)"/>
<path d="M12.7966 21.1659L12.7664 21.1836C12.5151 21.3292 12.4292 21.6509 12.5747 21.9022C12.6722 22.0707 12.8487 22.1647 13.0303 22.1647C13.1197 22.1647 13.2104 22.1419 13.2933 22.0938L13.3281 22.0734C13.5787 21.9266 13.6629 21.6044 13.5161 21.3538C13.3692 21.1033 13.0471 21.0192 12.7966 21.1659Z" fill="var(--primaryBackgroundColor)"/>
<path d="M7.91541 11.4287C7.59251 11.1058 7.16307 10.928 6.70633 10.928C6.24959 10.928 5.8201 11.1058 5.49706 11.4287C4.83041 12.0955 4.83041 13.1805 5.49706 13.8472L8.60232 16.9524C8.92527 17.2752 9.35472 17.453 9.8115 17.453C10.2683 17.453 10.6977 17.2752 11.0207 16.9523L17.5032 10.4698C18.1698 9.80283 18.1698 8.71802 17.5031 8.05146C17.1801 7.72852 16.7507 7.55078 16.2939 7.55078C15.8371 7.55078 15.4076 7.72856 15.0846 8.05146L9.81145 13.3246L7.91541 11.4287ZM15.8284 8.79521C15.9527 8.67095 16.118 8.60254 16.2939 8.60254C16.4699 8.60254 16.6351 8.67095 16.7595 8.79521C17.0161 9.0518 17.0161 9.46948 16.7594 9.72617L10.277 16.2086C10.1528 16.3328 9.98738 16.4013 9.8115 16.4013C9.63562 16.4013 9.47024 16.3328 9.34593 16.2086L6.24076 13.1035C5.98407 12.8468 5.98407 12.4291 6.24066 12.1726C6.36497 12.0483 6.53036 11.9798 6.70628 11.9798C6.88221 11.9798 7.04749 12.0482 7.17176 12.1725L9.43958 14.4403C9.53826 14.5389 9.67195 14.5943 9.81145 14.5943C9.95095 14.5943 10.0846 14.539 10.1832 14.4403L15.8284 8.79521Z" fill="var(--primaryBackgroundColor)"/>
</svg>
