<svg width="32" height="22" viewBox="0 0 32 22" fill="none" xmlns="http://www.w3.org/2000/svg">
    <g clip-path="url(#clip0)">
        <path d="M30.6161 4.77734H0.833026C0.475629 4.77734 0.185547 5.0783 0.185547 5.4491V9.47954C0.185547 9.85034 0.475629 10.1513 0.833026 10.1513H30.6161C30.9735 10.1513 31.2636 9.85034 31.2636 9.47954V5.4491C31.2636 5.0783 30.9735 4.77734 30.6161 4.77734ZM29.9687 8.80778H1.48044V6.1208H29.9686V8.80778H29.9687Z" fill="var(--primaryBackgroundColor)"/>
        <path d="M2.77563 21.4658H28.674C29.3607 21.465 30.0189 21.1919 30.5045 20.7064C30.99 20.2209 31.2631 19.5626 31.2639 18.8759V3.33691C31.2631 2.65028 30.99 1.99199 30.5045 1.50647C30.0189 1.02095 29.3607 0.747841 28.674 0.74707H2.77563C2.089 0.747841 1.43071 1.02095 0.945189 1.50647C0.459667 1.99199 0.186562 2.65028 0.185791 3.33691V18.8759C0.186562 19.5626 0.459667 20.2209 0.945189 20.7064C1.43071 21.1919 2.089 21.465 2.77563 21.4658ZM1.22173 3.33691C1.22221 2.92494 1.38607 2.52997 1.67738 2.23866C1.96869 1.94735 2.36366 1.78349 2.77563 1.78301H28.674C29.086 1.78349 29.481 1.94735 29.7723 2.23866C30.0636 2.52997 30.2274 2.92494 30.2279 3.33691V18.8759C30.2274 19.2879 30.0636 19.6829 29.7723 19.9742C29.481 20.2655 29.086 20.4294 28.674 20.4298H2.77563C2.36366 20.4294 1.96869 20.2655 1.67738 19.9742C1.38607 19.6829 1.22221 19.2879 1.22173 18.8759V3.33691Z" fill="var(--primaryBackgroundColor)"/>
        <path d="M3.94082 16.157H11.7103C11.8477 16.157 11.9795 16.1025 12.0766 16.0053C12.1737 15.9082 12.2283 15.7764 12.2283 15.6391C12.2283 15.5017 12.1737 15.3699 12.0766 15.2728C11.9795 15.1757 11.8477 15.1211 11.7103 15.1211H3.94082C3.80345 15.1211 3.6717 15.1757 3.57456 15.2728C3.47742 15.3699 3.42285 15.5017 3.42285 15.6391C3.42285 15.7764 3.47742 15.9082 3.57456 16.0053C3.6717 16.1025 3.80345 16.157 3.94082 16.157Z" fill="var(--primaryBackgroundColor)"/>
        <path d="M3.94082 18.2937H11.7103C11.8477 18.2937 11.9795 18.2392 12.0766 18.142C12.1737 18.0449 12.2283 17.9132 12.2283 17.7758C12.2283 17.6384 12.1737 17.5067 12.0766 17.4095C11.9795 17.3124 11.8477 17.2578 11.7103 17.2578H3.94082C3.80345 17.2578 3.6717 17.3124 3.57456 17.4095C3.47742 17.5067 3.42285 17.6384 3.42285 17.7758C3.42285 17.9132 3.47742 18.0449 3.57456 18.142C3.6717 18.2392 3.80345 18.2937 3.94082 18.2937Z" fill="var(--primaryBackgroundColor)"/>
    </g>
    <defs>
        <clipPath id="clip0">
            <rect width="31.0781" height="20.9777" fill="white" transform="translate(0.185791 0.74707)"/>
        </clipPath>
    </defs> 
</svg>