<svg width="160" height="160" viewBox="0 0 160 160" fill="none" xmlns="http://www.w3.org/2000/svg">
<g filter="url(#filter0_d_3268:29901)">
<circle cx="80" cy="75" r="75" fill="#C4C4C4"/>
</g>
<path d="M80.0074 40C64.293 40 51.4473 52.8457 51.4473 68.5601C51.4473 84.2745 64.293 97.1203 80.0074 97.1203C95.7218 97.1203 108.568 84.2745 108.568 68.5601C108.568 52.8457 95.7218 40 80.0074 40Z" fill="white"/>
<path d="M133.5 127.499C127.5 132.999 112.5 149.999 80 149.999C45 149.999 30.5 131.999 26 125.999C65.5 92.9995 38.5786 121.999 80 121.999C121.421 121.999 111 94.9995 133.5 127.499Z" fill="white"/>
<path d="M133.5 127.501C133.5 127.501 127.275 116.327 126.153 114.706C120.416 106.225 111.561 100.613 101.584 99.241C100.337 99.1164 98.9649 99.3657 97.9671 100.114C92.729 103.98 86.4933 105.976 80.0079 105.976C73.5225 105.976 67.2867 103.98 62.0486 100.114C61.0508 99.3657 59.6789 98.9916 58.4318 99.241C48.4545 100.613 39.475 106.225 33.8628 114.706C32.7403 116.327 25.5 126.501 25.5 126.501L27.5 128.501L32 132.501L38.5 137.501C38.5 137.501 41.5 139.364 44.5 141.001C55.5 147.001 67.7857 150.001 80.0079 150.001C92.2301 150.001 115 141.501 115 141.501C115 141.501 119.854 138.817 121.5 137.501C123.146 136.184 128 132.501 128 132.501L132 129.001L133.5 127.501Z" fill="white"/>
<defs>
<filter id="filter0_d_3268:29901" x="0" y="0" width="160" height="160" filterUnits="userSpaceOnUse" color-interpolation-filters="sRGB">
<feFlood flood-opacity="0" result="BackgroundImageFix"/>
<feColorMatrix in="SourceAlpha" type="matrix" values="0 0 0 0 0 0 0 0 0 0 0 0 0 0 0 0 0 0 127 0" result="hardAlpha"/>
<feOffset dy="5"/>
<feGaussianBlur stdDeviation="2.5"/>
<feColorMatrix type="matrix" values="0 0 0 0 0 0 0 0 0 0 0 0 0 0 0 0 0 0 0.1 0"/>
<feBlend mode="normal" in2="BackgroundImageFix" result="effect1_dropShadow_3268:29901"/>
<feBlend mode="normal" in="SourceGraphic" in2="effect1_dropShadow_3268:29901" result="shape"/>
</filter>
</defs>
</svg>
