<svg width="36" height="35" viewBox="0 0 36 35" fill="none" xmlns="http://www.w3.org/2000/svg">
    <g clip-path="url(#clip0)">
        <path d="M34.4346 13.2753C34.8137 13.2753 35.1211 12.968 35.1211 12.5888V7.93262C35.1211 7.55344 34.8137 7.24609 34.4346 7.24609L0.807625 7.24609C0.428444 7.24609 0.121094 7.55344 0.121094 7.93262L0.121094 12.5888C0.121094 12.968 0.428444 13.2753 0.807625 13.2753C3.15107 13.2753 5.05766 15.1819 5.05766 17.5254C5.05766 19.8688 3.15107 21.7754 0.807625 21.7754C0.428444 21.7754 0.121094 22.0827 0.121094 22.4619L0.121094 27.1181C0.121094 27.4973 0.428444 27.8046 0.807625 27.8046H6.91164C7.29082 27.8046 7.59817 27.4973 7.59817 27.1181C7.59817 26.7389 7.29082 26.4316 6.91164 26.4316H1.49416L1.49416 23.1068C4.27206 22.7671 6.43072 20.3935 6.43072 17.5254C6.43072 14.6572 4.27206 12.2836 1.49416 11.9439L1.49416 8.61916L25.0736 8.61916V9.99195C25.0736 10.3711 25.381 10.6785 25.7601 10.6785C26.1393 10.6785 26.4467 10.3711 26.4467 9.99195V8.61916H33.748V11.9439C30.9701 12.2836 28.8115 14.6572 28.8115 17.5254C28.8115 20.3935 30.9701 22.7671 33.748 23.1068V26.4316L26.4467 26.4316V25.0585C26.4467 24.6793 26.1393 24.3723 25.7601 24.3723C25.381 24.3723 25.0736 24.6793 25.0736 25.0585V26.4316H12.5489C12.1697 26.4316 11.8624 26.7389 11.8624 27.1181C11.8624 27.4973 12.1697 27.8046 12.5489 27.8046L34.4346 27.8046C34.8137 27.8046 35.1211 27.4973 35.1211 27.1181V22.4619C35.1211 22.0827 34.8137 21.7754 34.4346 21.7754C32.0911 21.7754 30.1845 19.8688 30.1845 17.5254C30.1845 15.1819 32.0911 13.2753 34.4346 13.2753Z" fill="var(--primaryBackgroundColor)"/>
        <path d="M25.7607 20.7235C26.1399 20.7235 26.4473 20.4161 26.4473 20.0369V15.0147C26.4473 14.6355 26.1399 14.3281 25.7607 14.3281C25.3816 14.3281 25.0742 14.6355 25.0742 15.0147V20.0369C25.0742 20.4161 25.3816 20.7235 25.7607 20.7235Z" fill="var(--primaryBackgroundColor)"/>
        <path d="M14.7413 16.5525C15.2502 16.0435 15.5306 15.3666 15.5306 14.647C15.5306 13.9271 15.2502 13.2502 14.7413 12.7412C13.6905 11.6904 11.9807 11.6904 10.93 12.7412C10.421 13.2502 10.1406 13.9271 10.1406 14.647C10.1406 15.3666 10.421 16.0435 10.93 16.5525C11.4555 17.078 12.1455 17.3405 12.8357 17.3405C13.5257 17.3405 14.216 17.078 14.7413 16.5525ZM11.5137 14.647C11.5137 14.2937 11.6512 13.9618 11.9009 13.7121C12.1586 13.4544 12.4972 13.3255 12.8357 13.3255C13.1743 13.3255 13.5127 13.4544 13.7703 13.7121C14.0203 13.9618 14.1578 14.2937 14.1578 14.647C14.1578 15 14.0203 15.3319 13.7703 15.5816C13.255 16.0972 12.4162 16.0972 11.9009 15.5816C11.6512 15.3319 11.5137 15 11.5137 14.647Z" fill="var(--primaryBackgroundColor)"/>
        <path d="M17.0891 18.828C16.038 19.8788 16.038 21.5886 17.0891 22.6393C17.6143 23.1648 18.3046 23.4276 18.9946 23.4276C19.6848 23.4276 20.3748 23.1648 20.9004 22.6393C21.9511 21.5886 21.9511 19.8788 20.9004 18.828C19.8493 17.7772 18.1395 17.7775 17.0891 18.828ZM19.9294 19.7989C20.4448 20.3143 20.4448 21.153 19.9294 21.6684C19.4141 22.1838 18.5753 22.184 18.06 21.6684C17.5443 21.153 17.5443 20.3143 18.06 19.7989C18.3176 19.5412 18.656 19.4123 18.9946 19.4123C19.3332 19.4123 19.6718 19.5412 19.9294 19.7989Z" fill="var(--primaryBackgroundColor)"/>
        <path d="M12.8182 21.7785L19.9687 14.628C20.2366 14.3599 20.2366 13.9252 19.9687 13.6571C19.7004 13.389 19.2659 13.389 18.9978 13.6571L11.8473 20.8076C11.5992 21.0557 11.5805 21.465 11.8065 21.7339C12.062 22.0381 12.537 22.0595 12.8182 21.7785Z" fill="var(--primaryBackgroundColor)"/>
        <path d="M9.71659 26.4248C9.43034 26.4248 9.16838 26.6096 9.07118 26.8787C8.97399 27.1474 9.05837 27.4582 9.2792 27.6403C9.50057 27.8227 9.81887 27.8472 10.0656 27.702C10.3121 27.557 10.445 27.263 10.3906 26.9824C10.3289 26.6633 10.0421 26.4248 9.71659 26.4248Z" fill="var(--primaryBackgroundColor)"/>
    </g>
    <defs>
        <clipPath id="clip0">
            <rect width="35" height="35" fill="var(--primaryBackgroundColor)" transform="translate(0.121094)"/>
        </clipPath>
    </defs>
</svg> 