<svg width="30" height="30" viewBox="0 0 16 16" fill="none" xmlns="http://www.w3.org/2000/svg">
    <circle cx="8" cy="8" r="8" fill="var(--primaryBackgroundColor)"/>
    <g clip-path="url(#clip0)">
        <path d="M9.06477 5.41797L5.18091 9.30211C5.16137 9.32171 5.14726 9.34646 5.14054 9.37305L4.71005 11.1009C4.69717 11.153 4.71246 11.2083 4.75042 11.2462C4.77914 11.275 4.81827 11.2909 4.85831 11.2909C4.87057 11.2909 4.88311 11.2893 4.89531 11.2863L6.62321 10.8557C6.65014 10.849 6.6746 10.8349 6.69414 10.8154L10.5783 6.93154L9.06477 5.41797Z" fill="white"/>
        <path d="M11.5409 4.89113L11.1086 4.4588C10.8196 4.16984 10.316 4.17012 10.0274 4.4588L9.4978 4.98838L11.0113 6.5019L11.5409 5.97231C11.6852 5.82803 11.7648 5.63599 11.7648 5.43175C11.7648 5.22751 11.6852 5.03547 11.5409 4.89113Z" fill="white"/>
    </g>
    <defs>
        <clipPath id="clip0">
            <rect width="10" height="10" fill="white" transform="translate(4.70581 4.23438)"/>
        </clipPath>
    </defs>
</svg>