<svg width="117" height="130" viewBox="0 0 117 130" fill="none" xmlns="http://www.w3.org/2000/svg">
<path d="M25.2467 45.4644C25.2467 45.4644 25.2507 45.4644 25.2517 45.4644H42.9121C40.372 37.7094 40.4365 38.1914 40.4365 28.7294C40.4365 24.6729 43.7373 21.3711 47.7948 21.3711C51.4715 21.3711 54.6086 24.1204 55.0897 27.7664C55.4705 30.6456 55.6967 35.4738 60.1479 39.7595L63.6501 43.1317C65.2538 44.6759 67.3644 45.5269 69.5911 45.5269H71.5122C72.1401 43.937 73.6883 42.8064 75.4994 42.8064H92.9584C95.3239 42.8064 97.248 44.7305 97.248 47.096V78.633C97.248 80.9975 95.3239 82.9216 92.9584 82.9216H75.4994C73.4701 82.9216 71.7701 81.5043 71.3268 79.6089L70.4163 79.6079C64.988 79.6079 65.0466 86.2174 56.0497 86.2174H56.0329H51.3168C50.2644 86.2174 49.4125 85.3655 49.4125 84.3141C49.4125 83.2618 50.2644 82.4098 51.3168 82.4098H56.0349C56.0398 82.4098 56.0438 82.4098 56.0478 82.4098C63.4101 82.4098 62.7108 75.8003 70.4232 75.8003H71.2107V49.3355H69.5911C66.3736 49.3355 63.3257 48.1067 61.0079 45.8751L57.5057 42.5029C52.0894 37.2879 51.7423 31.5075 51.3138 28.2643C51.0817 26.5058 49.5682 25.1797 47.7948 25.1797C45.8369 25.1797 44.2451 26.7716 44.2451 28.7294C44.2451 38.0982 44.0735 36.7761 47.0113 45.7441C47.5796 47.4798 46.2823 49.272 44.4543 49.272H25.2507H25.2487C23.754 49.272 22.5381 50.4811 22.5361 51.9678C22.5351 53.4635 23.7511 54.6805 25.2437 54.6814C30.2931 54.6844 19.0121 54.6834 32.9661 54.6834C34.0184 54.6834 34.8704 55.5354 34.8704 56.5877C34.8704 57.6391 34.0184 58.492 32.9661 58.492H25.6345C25.6325 58.492 25.6315 58.491 25.6315 58.491C25.6286 58.491 25.6266 58.492 25.6246 58.492C24.0694 58.492 22.8029 59.7943 22.8535 61.3554C22.9001 62.7975 24.1686 63.9699 25.6801 63.9699C26.1106 63.9699 30.7146 63.9718 32.9661 63.9718C34.0184 63.9718 34.8704 64.8248 34.8704 65.8761C34.8704 66.9275 34.0184 67.7804 32.9661 67.7804C31.5656 67.7804 36.365 67.7785 26.8009 67.7785C25.2794 67.7785 24.0456 69.0331 24.0972 70.5784C24.1448 72.0185 25.4124 73.1898 26.9219 73.1898C26.9219 73.1898 27.1242 73.1908 32.9661 73.1908C34.0184 73.1908 34.8704 74.0438 34.8704 75.0951C34.8704 76.1475 34.0184 76.9994 32.9661 76.9994H27.6975C26.2227 77.0193 25.0285 78.2243 25.0285 79.7031C25.0285 81.1948 26.2415 82.4088 27.7332 82.4088H42.431C43.4824 82.4088 44.3353 83.2608 44.3353 84.3131C44.3353 85.3645 43.4824 86.2174 42.431 86.2174L27.7332 86.2174C24.1418 86.2174 21.2199 83.2945 21.2199 79.7031C21.2199 78.1123 21.7932 76.6533 22.7434 75.5206C19.8681 73.2117 19.519 69.1819 21.6881 66.4464C18.4696 64.0443 18.1949 59.5662 20.8331 56.7623C16.4959 52.7633 19.3107 45.4644 25.2467 45.4644ZM75.0193 78.633C75.0193 78.8978 75.2346 79.114 75.5004 79.114H92.9584C93.2242 79.114 93.4395 78.8978 93.4395 78.633V47.096C93.4395 46.8312 93.2242 46.615 92.9584 46.615H75.5004C75.2346 46.615 75.0193 46.8312 75.0193 47.096V78.633Z" fill="#C4C4C4"/>
<path d="M46.4753 114.483C46.8968 114.571 47.1696 114.985 47.0833 115.405L44.9052 126.035C44.3349 128.82 47.3203 130.97 49.78 129.55L87.1876 107.952C101.369 99.7651 111.451 85.8736 114.852 69.8408C115.069 68.8123 114.412 67.8017 113.384 67.5835C112.356 67.3653 111.344 68.0228 111.125 69.0514C107.949 84.0289 98.5301 97.0059 85.2833 104.654L48.8656 125.679L50.8145 116.169C51.3203 113.699 49.7225 111.27 47.2529 110.754C32.197 107.614 19.1565 98.1822 11.4749 84.8769C-3.40941 59.0964 5.44459 25.9964 31.2121 11.0913C43.7131 3.85988 58.2809 1.93277 72.2319 5.66499C97.3627 12.3886 113.465 35.6339 112.242 60.4661C112.19 61.5165 113 62.4101 114.05 62.4617C115.1 62.5152 115.993 61.7039 116.046 60.6536C117.353 34.1085 100.165 9.19588 73.2158 1.98633C42.0845 -6.342 10.5178 12.3251 2.33919 42.9C-6.26388 75.0638 14.0982 107.729 46.4753 114.483Z" fill="#C4C4C4"/>
</svg>