<svg width="20" height="20" viewBox="0 0 20 20" fill="none" xmlns="http://www.w3.org/2000/svg">
    <path d="M16.2269 19.3527L10 13.1257L3.7731 19.3527C2.9099 20.2158 1.51049 20.2158 0.647288 19.3527C-0.215763 18.4895 -0.215763 17.0901 0.647288 16.2269L6.87434 10L0.647288 3.7731C-0.215763 2.9099 -0.215763 1.51049 0.647288 0.647288C1.51049 -0.215763 2.9099 -0.215763 3.7731 0.647288L10 6.87434L16.2269 0.647288C17.0901 -0.215763 18.4895 -0.215763 19.3527 0.647288C20.2158 1.51049 20.2158 2.9099 19.3527 3.7731L13.1257 10L19.3527 16.2269C20.2158 17.0901 20.2158 18.4895 19.3527 19.3527C18.4895 20.2158 17.0901 20.2158 16.2269 19.3527Z" fill="#FE1039"/>
</svg>