<svg width="32" height="32" viewBox="0 0 32 32" fill="none" xmlns="http://www.w3.org/2000/svg">
    <path d="M31.245 11.7661L20.88 10.8048L16.7628 1.24426C16.4745 0.574828 15.5254 0.574828 15.2371 1.24426L11.1199 10.8049L0.755016 11.7661C0.0292676 11.8334 -0.264044 12.7361 0.283517 13.2171L8.10388 20.0872L5.81526 30.242C5.65501 30.953 6.42288 31.5108 7.04957 31.1387L16 25.8241L24.9504 31.1387C25.5771 31.5108 26.345 30.953 26.1848 30.242L23.8961 20.0872L31.7165 13.2171C32.264 12.7361 31.9707 11.8334 31.245 11.7661Z" fill="#F52F42"/>
    <path d="M16.7628 1.24426C16.4745 0.574828 15.5254 0.574828 15.2371 1.24426L11.1199 10.8049L0.755016 11.7661C0.0292676 11.8334 -0.264044 12.7361 0.283517 13.2171L8.10388 20.0872L5.81526 30.242C5.65501 30.953 6.42288 31.5108 7.04957 31.1387L9.04725 29.9525C9.32375 18.5712 14.6119 10.5564 18.7986 5.97151L16.7628 1.24426Z" fill="#D3182A"/>
</svg>