
<svg width="32" height="32" viewBox="0 0 33 32" fill="none" xmlns="http://www.w3.org/2000/svg">
    <path d="M20.5664 11.2267L20.8169 11.8084L21.4475 11.8669L31.2666 12.7776L23.8581 19.2859L23.3823 19.7039L23.5215 20.3218L25.6897 29.9417L17.2106 24.9069L16.666 24.5836L16.1214 24.9069L7.64238 29.9416L9.81046 20.3217L9.94971 19.7039L9.47388 19.2859L2.06542 12.7776L11.8845 11.867L12.5151 11.8085L12.7656 11.2268L16.666 2.16969L20.5664 11.2267ZM31.6785 12.4158L31.6781 12.4161C31.6782 12.416 31.6784 12.4159 31.6785 12.4157L31.6785 12.4158ZM16.4491 1.66611L16.4491 1.66616L16.4491 1.66611Z" stroke="#FFC850" stroke-width="2.13333"/>
</svg>