<svg width="32" height="32" viewBox="0 0 32 32" fill="none" xmlns="http://www.w3.org/2000/svg">
      <path d="M19.9004 11.2267L20.1509 11.8084L20.7815 11.8669L30.6006 12.7776L23.1921 19.2859L22.7163 19.7039L22.8555 20.3218L25.0237 29.9417L16.5446 24.9069L16 24.5836L15.4554 24.9069L6.97636 29.9416L9.14444 20.3217L9.2837 19.7039L8.80787 19.2859L1.3994 12.7776L11.2184 11.867L11.8491 11.8085L12.0996 11.2268L16 2.16969L19.9004 11.2267ZM31.0125 12.4158L31.012 12.4161C31.0122 12.416 31.0123 12.4159 31.0125 12.4157L31.0125 12.4158ZM15.7831 1.66611L15.7831 1.66616L15.7831 1.66611Z" fill="#FFC850" stroke="#FFC850" stroke-width="2.13333"/>
      <path d="M16.7628 1.24426C16.4745 0.574828 15.5254 0.574828 15.2371 1.24426L11.1199 10.8049L0.755016 11.7661C0.0292676 11.8334 -0.264044 12.7361 0.283517 13.2171L8.10388 20.0872L5.81526 30.242C5.65501 30.953 6.42288 31.5108 7.04957 31.1387L9.04725 29.9525C9.32375 18.5712 14.6119 10.5564 18.7986 5.97151L16.7628 1.24426Z" fill="#FFA700"/>
</svg>