<svg width="25" height="9" viewBox="0 0 25 9" fill="none" xmlns="http://www.w3.org/2000/svg">
    <path d="M22.9135 0.246643C22.2618 0.755251 21.5689 1.20034 20.8451 1.58259C20.8185 1.59493 20.7927 1.60829 20.7675 1.62222C19.5125 2.27541 18.1666 2.74077 16.7817 3.01647C16.7705 3.0184 16.7595 3.02066 16.7485 3.02281C13.9176 3.57977 10.9278 3.34822 8.22899 2.32897C8.20848 2.32014 8.18771 2.3121 8.16694 2.30428C6.85899 1.80349 5.61989 1.11893 4.50233 0.24687C4.4972 0.242794 4.49156 0.239624 4.4863 0.235548C4.45963 0.215394 4.43271 0.19592 4.40463 0.17803C4.39733 0.173275 4.38963 0.169197 4.3822 0.164668C4.35476 0.147911 4.32694 0.131607 4.29835 0.116888C4.28874 0.111906 4.27874 0.107604 4.26899 0.102849C4.24233 0.089941 4.21553 0.0773715 4.18797 0.0662754C4.1754 0.0611803 4.16271 0.0568785 4.15002 0.0522363C4.12476 0.0428386 4.09938 0.0336672 4.07348 0.0258546C4.05874 0.0213256 4.04387 0.017589 4.02887 0.0136261C4.00451 0.00694582 3.98002 0.000604924 3.95528 -0.00471666C3.93938 -0.00811341 3.92335 -0.0107162 3.90733 -0.0135468C3.88297 -0.0178494 3.85861 -0.0220401 3.83412 -0.0252104C3.81797 -0.0272484 3.80194 -0.0283807 3.78579 -0.0298527C3.76092 -0.0322304 3.73604 -0.0342672 3.71104 -0.0352862C3.69553 -0.0359656 3.68002 -0.0358537 3.66438 -0.0359669C3.63874 -0.0361934 3.61297 -0.0361931 3.58733 -0.0349476C3.57246 -0.0342682 3.55771 -0.0329095 3.54284 -0.0317773C3.51669 -0.0297392 3.49053 -0.0275869 3.46451 -0.0243034C3.44989 -0.0222653 3.4354 -0.0197747 3.42092 -0.0172838C3.39515 -0.0130945 3.36951 -0.00879191 3.34399 -0.00313065C3.32874 0.000152882 3.31387 0.00422888 3.29874 0.00807853C3.27451 0.0143059 3.2504 0.0204204 3.22643 0.0278933C3.20976 0.0331016 3.19348 0.0392151 3.17707 0.0448764C3.15553 0.0524625 3.13387 0.0601616 3.11271 0.0687667C3.09399 0.076466 3.07579 0.0852985 3.05733 0.0937904C3.03912 0.102169 3.02092 0.11032 3.0031 0.119718C2.98246 0.130474 2.96246 0.142364 2.94233 0.154252C2.92733 0.163084 2.9122 0.171575 2.89758 0.180973C2.87669 0.194446 2.85681 0.209166 2.83669 0.223772C2.82617 0.231472 2.81515 0.238152 2.80489 0.246191C2.79925 0.250493 2.79387 0.255023 2.78835 0.259439C2.78592 0.261477 2.78348 0.263288 2.78104 0.265326C1.8263 1.0125 0.969506 1.85693 0.234378 2.77643C-0.174084 3.28731 -0.0361349 3.99372 0.542198 4.35445C0.766814 4.49451 1.02489 4.56188 1.28053 4.56188C1.68297 4.56188 2.07925 4.39487 2.32899 4.0826C2.74694 3.55995 3.21233 3.0664 3.71733 2.60671C4.4172 3.07875 5.15002 3.49473 5.90822 3.85445C5.55092 4.50844 5.2481 5.18553 5.00489 5.87846C4.79528 6.47561 5.17348 7.11001 5.84989 7.29525C5.9763 7.3299 6.10412 7.34632 6.22989 7.34632C6.77694 7.34632 7.28361 7.03461 7.45412 6.54898C7.66861 5.93813 7.93848 5.342 8.25758 4.76705C9.08246 5.02146 9.92566 5.21666 10.7787 5.35197C10.6675 6.07219 10.6162 6.79978 10.6273 7.52646C10.6368 8.14659 11.2089 8.64342 11.9089 8.64342C11.9148 8.64342 11.9207 8.64342 11.9266 8.64331C12.6345 8.63493 13.2007 8.12123 13.1912 7.49589C13.1814 6.85492 13.2298 6.21327 13.3325 5.5783C13.4575 5.58091 13.5825 5.58215 13.7075 5.58215C14.4516 5.58215 15.1955 5.53754 15.9341 5.44923C16.0804 6.16492 16.2862 6.87122 16.5512 7.55952C16.7326 8.03076 17.2309 8.32764 17.7649 8.32764C17.9017 8.32764 18.0408 8.30805 18.1777 8.26706C18.8481 8.06586 19.2067 7.42274 18.9789 6.83057C18.7457 6.22459 18.5672 5.60219 18.4428 4.9713C19.2716 4.75267 20.0845 4.47515 20.8734 4.13898C21.2625 4.77859 21.7048 5.39295 22.1967 5.97425C22.4485 6.27169 22.8341 6.42874 23.2246 6.42874C23.4916 6.42874 23.7609 6.35537 23.9913 6.20331C24.5584 5.82887 24.6745 5.1194 24.2507 4.61849C23.8171 4.10626 23.4298 3.56312 23.0907 2.99734C23.615 2.676 24.1228 2.32489 24.6112 1.94378C25.1418 1.52971 25.1917 0.814129 24.7228 0.345603C24.2544 -0.123149 23.4444 -0.167421 22.9135 0.246643Z" fill="var(--primarySecondaryBackgroundColor)"/>
</svg>