<svg width="23" height="16" viewBox="0 0 23 16" fill="none" xmlns="http://www.w3.org/2000/svg">
    <path fill-rule="evenodd" clip-rule="evenodd" d="M11.4998 0.208984C6.2915 0.208984 1.84359 3.44857 0.0415039 8.02148C1.84359 12.5944 6.2915 15.834 11.4998 15.834C16.7082 15.834 21.1561 12.5944 22.9582 8.02148C21.1561 3.44857 16.7082 0.208984 11.4998 0.208984ZM11.4998 13.2297C8.62484 13.2297 6.2915 10.8964 6.2915 8.02135C6.2915 5.14635 8.62484 2.81302 11.4998 2.81302C14.3748 2.81302 16.7082 5.14635 16.7082 8.02135C16.7082 10.8964 14.3748 13.2297 11.4998 13.2297ZM11.4998 4.89649C9.77067 4.89649 8.37484 6.29232 8.37484 8.02148C8.37484 9.75065 9.77067 11.1465 11.4998 11.1465C13.229 11.1465 14.6248 9.75065 14.6248 8.02148C14.6248 6.29232 13.229 4.89649 11.4998 4.89649Z" fill="var(--primarySecondaryBackgroundColor)" fill-opacity="0.6"/>
</svg>