<svg width="36" height="36" viewBox="0 0 36 36" fill="none" xmlns="http://www.w3.org/2000/svg">
    <g clip-path="url(#clip0)">
        <path d="M18.0001 0.00195312C8.05903 0.00195312 0 8.06098 0 18.0021C0 26.918 6.48939 34.302 14.998 35.7318V21.7574H10.6559V16.7285H14.998V13.0205C14.998 8.71803 17.6258 6.37346 21.4645 6.37346C23.3029 6.37346 24.8829 6.51046 25.3415 6.57079V11.068L22.6792 11.0693C20.592 11.0693 20.1896 12.0609 20.1896 13.5165V16.726H25.1697L24.5202 21.7548H20.1896V35.8521C29.0955 34.7681 36 27.1961 36 17.9969C36 8.06098 27.941 0.00195312 18.0001 0.00195312Z" fill="white" />
    </g>
    <defs>
        <clipPath id="clip0">
            <rect width="36" height="36" fill="white" />
        </clipPath>
    </defs>
</svg>