<svg width="25" height="23" viewBox="0 0 25 23" fill="none" xmlns="http://www.w3.org/2000/svg">
<path d="M23.9247 17.9278C24.6289 16.6375 25 15.1832 25 13.7045C25 8.93604 21.1973 5.03955 16.4652 4.88701C14.9384 2.24814 12.0845 0.46875 8.82275 0.46875C3.95786 0.46875 0 4.42666 0 9.29155C0 10.7701 0.371094 12.2244 1.07534 13.5147L0.539844 16.7317C0.501025 16.9649 0.577197 17.2026 0.744434 17.3698C0.911621 17.537 1.14932 17.613 1.38257 17.5744L4.59956 17.0389C5.80605 17.6974 7.15596 18.0645 8.53501 18.1094C10.0618 20.7481 12.9156 22.5273 16.1773 22.5273C17.6559 22.5273 19.1101 22.1563 20.4005 21.452L23.6175 21.9875C23.8506 22.0261 24.0884 21.9501 24.2556 21.7829C24.4229 21.6157 24.499 21.378 24.4602 21.1448L23.9247 17.9278ZM4.73472 15.5415C4.69463 15.5415 4.65439 15.5448 4.61445 15.5514L2.15308 15.9612L2.56284 13.4999C2.59102 13.3306 2.55889 13.1569 2.47207 13.0089C1.81313 11.8858 1.46484 10.6004 1.46484 9.29155C1.46484 5.23438 4.76558 1.93359 8.82275 1.93359C12.8799 1.93359 16.1807 5.23438 16.1807 9.2915C16.1807 13.3486 12.8799 16.6494 8.82275 16.6494C7.51387 16.6494 6.22842 16.3011 5.10537 15.6422C4.99238 15.5759 4.86436 15.5415 4.73472 15.5415ZM22.4372 17.9128L22.847 20.3742L20.3856 19.9645C20.2165 19.9362 20.0427 19.9684 19.8947 20.0552C18.7716 20.7142 17.4862 21.0625 16.1773 21.0625C13.7243 21.0625 11.5482 19.8556 10.2105 18.0047C10.8166 17.9086 11.4021 17.7503 11.9607 17.5371C12.0749 17.6105 12.2104 17.6537 12.3563 17.6537H20.0022C20.4067 17.6537 20.7346 17.3258 20.7346 16.9213C20.7346 16.5168 20.4067 16.1889 20.0022 16.1889H14.3176C14.95 15.684 15.5117 15.0943 15.9853 14.437H20.0022C20.4067 14.437 20.7346 14.109 20.7346 13.7045C20.7346 13.3 20.4067 12.9721 20.0022 12.9721H16.8401C17.0961 12.4167 17.296 11.8303 17.4326 11.2203H20.0022C20.4067 11.2203 20.7347 10.8923 20.7347 10.4878C20.7347 10.0834 20.4067 9.75542 20.0022 9.75542H17.6333C17.6413 9.60176 17.6455 9.44712 17.6455 9.2915C17.6455 8.28394 17.4752 7.31548 17.1628 6.41284C20.7557 6.896 23.5352 9.98154 23.5352 13.7045C23.5352 15.0135 23.1869 16.2989 22.5279 17.4219C22.4411 17.5699 22.409 17.7436 22.4372 17.9128Z" fill="var(--primaryBackgroundColor)"/>
<path d="M7.71289 6.99302C7.71289 6.38086 8.21094 5.88281 8.8231 5.88281C9.43525 5.88281 9.9333 6.38086 9.9333 6.99302C9.9333 7.60518 9.43525 8.10322 8.8231 8.10322C8.4186 8.10322 8.09067 8.43115 8.09067 8.83564V10.9938C8.09067 11.3983 8.4186 11.7263 8.8231 11.7263C9.22759 11.7263 9.55552 11.3983 9.55552 10.9938V9.46196C10.6197 9.1457 11.3981 8.15854 11.3981 6.99302C11.3981 5.57314 10.243 4.41797 8.8231 4.41797C7.40322 4.41797 6.24805 5.57314 6.24805 6.99302C6.24805 7.39751 6.57598 7.72544 6.98047 7.72544C7.38496 7.72544 7.71289 7.39751 7.71289 6.99302Z" fill="var(--primaryBackgroundColor)"/>
<path d="M8.82288 12.7031C8.43978 12.7031 8.07274 13.04 8.09046 13.4355C8.10823 13.8324 8.41229 14.168 8.82288 14.168C9.20599 14.168 9.57303 13.8311 9.5553 13.4355C9.53753 13.0387 9.23348 12.7031 8.82288 12.7031Z" fill="var(--primaryBackgroundColor)"/>
</svg>
