<svg width="60" height="56" viewBox="0 0 60 56" fill="none" xmlns="http://www.w3.org/2000/svg">
    <path d="M56.7005 3.92504C54.5013 1.70141 51.8511 0.544886 49.0267 0.581917C46.3842 0.616136 43.7915 1.73903 41.7261 3.74375L41.7067 3.76262L14.897 31.0198C12.2145 33.7305 12.2138 37.6659 14.8954 40.3773C16.1957 41.6921 17.8545 42.4161 19.5665 42.4161C19.5667 42.4161 19.567 42.4161 19.5673 42.4161C21.3 42.4159 22.9697 41.6919 24.2769 40.3694L42.807 21.4387L39.4572 18.1599L20.9353 37.0823C20.5233 37.4991 20.0373 37.7287 19.5666 37.7287C19.1035 37.7288 18.653 37.511 18.2279 37.0812C16.9942 35.8337 17.8174 34.7325 18.2337 34.312L45.009 7.08969C47.5679 4.62125 50.8463 4.67188 53.3677 7.22129C56.3595 10.2463 55.5245 13.7975 53.3697 15.975L22.8922 47.4515C20.798 49.5663 18.1483 50.731 15.4301 50.7314C15.4296 50.7314 15.4292 50.7314 15.4287 50.7314C12.7115 50.7314 10.1336 49.5772 7.97404 47.3937C2.91892 42.2826 4.3308 36.2797 7.97334 32.596L31.0705 9.50399L27.7565 6.18922L4.65412 29.2863L4.64533 29.2952C1.74834 32.2227 0.100211 35.9143 0.00458635 39.6897C-0.097484 43.7157 1.50588 47.5195 4.64146 50.69C7.65763 53.7396 11.4884 55.419 15.429 55.4189C15.4295 55.4189 15.4306 55.4189 15.431 55.4188C19.4148 55.4183 23.2514 53.7561 26.2341 50.7386L56.7115 19.262C61.1001 14.8175 61.0962 8.36961 56.7005 3.92504Z" fill="#7963E0" fill-opacity="0.3"/>
</svg>