<svg width="21" height="20" viewBox="0 0 21 20" fill="none" xmlns="http://www.w3.org/2000/svg">
    <g clip-path="url(#clip0)">
        <path d="M5.1248 12.0855L4.42863 14.6845L1.88414 14.7383C1.12371 13.3279 0.692383 11.7141 0.692383 9.9993C0.692383 8.34106 1.09566 6.77731 1.81051 5.40039H1.81105L4.07637 5.8157L5.06871 8.06742C4.86102 8.67293 4.74781 9.32293 4.74781 9.9993C4.74789 10.7334 4.88086 11.4367 5.1248 12.0855Z" fill="#FBBB00"/>
        <path d="M20.5166 8.13086C20.6314 8.73578 20.6913 9.36051 20.6913 9.99898C20.6913 10.7149 20.616 11.4133 20.4726 12.0869C19.9858 14.3792 18.7138 16.3809 16.9518 17.7973L16.9512 17.7968L14.0979 17.6512L13.6941 15.1303C14.8633 14.4446 15.7771 13.3715 16.2584 12.0869H10.9111V8.13086H16.3364H20.5166Z" fill="#518EF8"/>
        <path d="M16.9539 17.7975L16.9544 17.798C15.2407 19.1755 13.0638 19.9997 10.694 19.9997C6.88574 19.9997 3.57477 17.8711 1.88574 14.7387L5.12641 12.0859C5.9709 14.3398 8.14508 15.9442 10.694 15.9442C11.7896 15.9442 12.816 15.648 13.6967 15.131L16.9539 17.7975Z" fill="#28B446"/>
        <path d="M17.072 2.30219L13.8324 4.95437C12.9209 4.38461 11.8434 4.05547 10.689 4.05547C8.0824 4.05547 5.86756 5.73348 5.06537 8.06812L1.80768 5.40109H1.80713C3.47143 2.1923 6.82416 0 10.689 0C13.1154 0 15.3401 0.864297 17.072 2.30219Z" fill="#F14336"/>
    </g>
    <defs>
        <clipPath id="clip0">
            <rect width="20" height="20" fill="white" transform="translate(0.692383)"/>
        </clipPath>
    </defs>
</svg>