<svg width="25" height="25" viewBox="0 0 25 25" fill="none" xmlns="http://www.w3.org/2000/svg">
<path d="M24.375 10.823C24.3743 10.8225 24.3737 10.8217 24.3731 10.8211L14.1751 0.623468C13.7404 0.188591 13.1625 -0.0507812 12.5477 -0.0507812C11.933 -0.0507812 11.3551 0.188591 10.9202 0.623468L0.72749 10.816C0.724057 10.8194 0.720433 10.823 0.71719 10.8265C-0.175451 11.7243 -0.173925 13.1809 0.721577 14.0764C1.1307 14.4857 1.67087 14.7226 2.2486 14.7476C2.27225 14.7499 2.29591 14.751 2.31975 14.751H2.72601V22.2557C2.72601 23.741 3.93451 24.9493 5.41977 24.9493H9.40957C9.81412 24.9493 10.142 24.6212 10.142 24.2168V18.333C10.142 17.6554 10.6934 17.1041 11.3711 17.1041H13.7244C14.4021 17.1041 14.9533 17.6554 14.9533 18.333V24.2168C14.9533 24.6212 15.2812 24.9493 15.6857 24.9493H19.6755C21.161 24.9493 22.3693 23.741 22.3693 22.2557V14.751H22.7462C23.3607 14.751 23.9386 14.5117 24.3737 14.0766C25.2702 13.1798 25.2705 11.7204 24.375 10.823ZM23.3378 13.0409C23.1797 13.199 22.9695 13.2862 22.7462 13.2862H21.6368C21.2323 13.2862 20.9044 13.6141 20.9044 14.0186V22.2557C20.9044 22.9332 20.3532 23.4844 19.6755 23.4844H16.4181V18.333C16.4181 16.8478 15.2098 15.6393 13.7244 15.6393H11.3711C9.88564 15.6393 8.67714 16.8478 8.67714 18.333V23.4844H5.41977C4.74228 23.4844 4.19086 22.9332 4.19086 22.2557V14.0186C4.19086 13.6141 3.86299 13.2862 3.45844 13.2862H2.36819C2.35675 13.2854 2.3455 13.2849 2.33386 13.2847C2.11566 13.2808 1.911 13.1943 1.75765 13.0407C1.43149 12.7146 1.43149 12.1837 1.75765 11.8574C1.75784 11.8574 1.75784 11.8572 1.75803 11.857L1.7586 11.8564L11.9563 1.65916C12.1142 1.50104 12.3242 1.41407 12.5477 1.41407C12.7711 1.41407 12.9811 1.50104 13.1392 1.65916L23.3346 11.8543C23.3361 11.8559 23.3378 11.8574 23.3393 11.8589C23.6638 12.1856 23.6632 12.7153 23.3378 13.0409Z" fill="var(--primaryBackgroundColor)"/>
</svg>