<svg width="60" height="60" viewBox="0 0 60 60" fill="none" xmlns="http://www.w3.org/2000/svg">
    <path d="M52.333 0H7.66699C3.43934 0 0 3.43945 0 7.66711V52.333C0 56.5605 3.43934 60 7.66699 60H52.333C56.5607 60 60 56.5605 60 52.3329V7.66711C60 3.43945 56.5607 0 52.333 0ZM56.4659 52.333C56.4659 54.612 54.6118 56.4659 52.333 56.4659H7.66699C5.38805 56.4659 3.53402 54.6118 3.53402 52.333V45.8869L15.1655 35.9903C15.5899 35.6291 16.2091 35.6257 16.6376 35.9815L23.9236 42.0316C24.6261 42.6149 25.6574 42.5671 26.303 41.9208L43.615 24.5824C43.9279 24.2689 44.2927 24.2385 44.4831 24.2482C44.6729 24.2579 45.0333 24.3257 45.3125 24.6696L56.466 38.4028V52.333H56.4659ZM56.4659 32.7967L48.0558 22.4413C47.2218 21.4143 45.9855 20.7864 44.6641 20.7185C43.3437 20.6517 42.0489 21.1488 41.1141 22.0852L24.9412 38.2829L18.8955 33.2627C17.1425 31.807 14.6108 31.8221 12.8753 33.2988L3.53402 41.2467V7.66711C3.53402 5.38816 5.38805 3.53414 7.66699 3.53414H52.333C54.612 3.53414 56.4659 5.38816 56.4659 7.66711V32.7967Z" fill="#999999" fill-opacity="0.3"/>
    <path d="M18.8873 7.38281C14.1886 7.38281 10.3662 11.2055 10.3662 15.9039C10.3662 20.6024 14.1887 24.4249 18.8873 24.4249C23.5858 24.4249 27.4083 20.6024 27.4083 15.9039C27.4083 11.2054 23.5859 7.38281 18.8873 7.38281ZM18.8873 20.8909C16.1373 20.8909 13.9002 18.6537 13.9002 15.9039C13.9002 13.1539 16.1373 10.9168 18.8873 10.9168C21.6372 10.9168 23.8743 13.1541 23.8743 15.9039C23.8743 18.6537 21.6372 20.8909 18.8873 20.8909Z" fill="#999999" fill-opacity="0.3"/>
</svg>