<svg width="70" height="62" viewBox="0 0 70 62" fill="none" xmlns="http://www.w3.org/2000/svg">
    <g clip-path="url(#clip0)">
        <path d="M19.222 3.4985C19.2108 3.47173 19.1996 3.44496 19.1912 3.41678C19.075 3.09973 19.019 2.79396 19.019 2.48396C19.019 0.973413 20.2398 -0.253905 21.7392 -0.253905H2.7202C1.2208 -0.255314 0 0.973414 0 2.48255C0 2.78973 0.0574 3.10396 0.1722 3.41678C0.182 3.44496 0.1918 3.47314 0.2044 3.49991C0.2744 3.67323 0.357 3.80005 0.406 3.87332L21.392 40.4843L23.1798 43.5435C23.2078 43.5914 23.2386 43.6379 23.2722 43.6816C23.7986 44.3678 24.577 44.7609 25.4072 44.7609C26.2766 44.7609 27.076 44.3382 27.601 43.5998C27.6262 43.5646 27.6486 43.5294 27.6696 43.4927L34.9104 30.8898L19.425 3.87332C19.376 3.80005 19.2934 3.67323 19.222 3.4985ZM25.4086 42.2231V43.4279L25.375 42.2443L25.4086 42.2231Z" fill="#7151F2"/>
        <path d="M67.1736 -0.253906H48.1532C49.6526 -0.253906 50.8734 0.974822 50.8734 2.48396C50.8734 2.82919 50.7894 3.10114 50.7334 3.2815C50.704 3.37591 50.6634 3.47173 50.6144 3.55768L34.9106 30.8912L40.4112 40.4857L42.2004 43.5449C42.2284 43.5928 42.2592 43.6393 42.2928 43.683C42.8192 44.3692 43.5976 44.7623 44.4278 44.7623C45.2972 44.7623 46.0966 44.3396 46.6202 43.6012C46.6454 43.566 46.6678 43.5308 46.6888 43.4941L69.6348 3.55768C69.6824 3.47173 69.7244 3.37591 69.7538 3.2815C69.8084 3.10114 69.8938 2.82919 69.8938 2.48396C69.8938 0.974822 68.673 -0.253906 67.1736 -0.253906ZM44.4278 43.4293L44.3942 42.2443L44.4278 42.2246V43.4293Z" fill="#8163DE"/>
        <path d="M20.7707 62.001H20.6755C19.8145 60.3115 18.8373 58.2472 17.9987 56.2801C17.1489 58.2472 16.1717 60.3115 15.2897 62.001H15.2043C14.0675 59.6492 12.7823 56.6535 11.7295 53.9805H13.3759C13.9709 55.6277 14.6835 57.4144 15.3737 59.0067C16.1171 57.413 16.8717 55.6277 17.5199 53.9805H18.4761C19.1131 55.6277 19.8789 57.4144 20.6335 59.0067C21.3139 57.413 22.0251 55.6277 22.6103 53.9805H24.2679C23.2151 56.6535 21.9187 59.6492 20.7707 62.001Z" fill="#8163DE"/>
        <path d="M29.4398 59.5401H25.4975C25.6039 60.3855 26.0071 60.8238 27.1439 60.8238C27.6969 60.8238 28.4823 60.6843 29.0885 60.5025V61.6044C28.5145 61.8397 27.6017 62.0004 26.8037 62.0004C25.0929 62.0004 23.9561 60.9633 23.9561 59.0483C23.9561 57.2306 25.0719 56.0117 26.7295 56.0117C28.3759 56.0117 29.4917 57.177 29.4917 58.9201C29.4931 59.123 29.4608 59.3696 29.4398 59.5401ZM25.4877 58.5791H27.9741C27.8789 57.7125 27.4743 57.146 26.7309 57.146C25.9875 57.146 25.5717 57.7125 25.4877 58.5791Z" fill="#8163DE"/>
        <path d="M34.8929 55.1573C33.1499 55.1573 32.0033 56.2705 32.0033 57.9388C32.0033 59.6072 33.1821 60.719 34.9475 60.719C35.4473 60.719 36.2859 60.602 36.7213 60.4301V61.6278C36.1151 61.8519 35.2023 62.0027 34.4575 62.0027C32.0243 62.0027 30.4087 60.378 30.4087 57.9388C30.4087 55.4997 32.0019 53.875 34.3931 53.875C35.1155 53.875 36.0087 54.0244 36.6135 54.2498V55.4476C36.1459 55.2644 35.3591 55.1573 34.8929 55.1573Z" fill="#8163DE"/>
        <path d="M37.3984 59.006C37.3984 57.2094 38.6318 56.0117 40.4798 56.0117C42.3068 56.0117 43.55 57.2094 43.55 59.006C43.55 60.8026 42.3068 62.0004 40.4798 62.0004C38.6318 62.0004 37.3984 60.8026 37.3984 59.006ZM42.01 59.006C42.01 57.9154 41.3828 57.1869 40.47 57.1869C39.546 57.1869 38.9398 57.9154 38.9398 59.006C38.9398 60.0967 39.5446 60.8238 40.47 60.8238C41.3842 60.8238 42.01 60.0967 42.01 59.006Z" fill="#8163DE"/>
        <path d="M46.9178 62.0026H46.8324C45.7166 60.0665 44.7394 58.184 43.8154 56.1211H45.4198C45.802 57.2117 46.3018 58.3348 46.8856 59.4465C47.4386 58.3334 47.9482 57.2117 48.3416 56.1211H49.9362C49.0108 58.184 48.0224 60.0665 46.9178 62.0026Z" fill="#8163DE"/>
        <path d="M55.6967 59.5401H51.7543C51.8607 60.3855 52.2639 60.8238 53.4007 60.8238C53.9537 60.8238 54.7391 60.6843 55.3453 60.5025V61.6044C54.7713 61.8397 53.8585 62.0004 53.0605 62.0004C51.3497 62.0004 50.2129 60.9633 50.2129 59.0483C50.2129 57.2306 51.3287 56.0117 52.9863 56.0117C54.6327 56.0117 55.7485 57.177 55.7485 58.9201C55.7499 59.123 55.7177 59.3696 55.6967 59.5401ZM51.7445 58.5791H54.2309C54.1357 57.7125 53.7311 57.146 52.9877 57.146C52.2443 57.146 51.8299 57.7125 51.7445 58.5791Z" fill="#8163DE"/>
        <path d="M58.4169 57.6688V61.8933H56.9287V56.0653C57.4705 56.0653 57.9171 56.1822 58.2881 56.4077C58.9041 56.1399 59.5313 56.0117 60.2747 56.0117V57.4236C59.5005 57.4236 58.8957 57.5194 58.4169 57.6688Z" fill="#8163DE"/>
        <path d="M50.7347 3.2815C50.7893 3.10114 50.8747 2.82919 50.8747 2.48396C50.8747 0.973413 49.6538 -0.253906 48.1544 -0.253906H21.7392C20.2398 -0.253906 19.019 0.974822 19.019 2.48396C19.019 2.79396 19.075 3.09973 19.1912 3.41678C19.201 3.44496 19.2108 3.47173 19.222 3.4985C19.292 3.67323 19.376 3.80146 19.425 3.87332L34.9104 30.8898L50.6157 3.55768C50.6632 3.47173 50.7053 3.37591 50.7347 3.2815Z" fill="#8063C5"/>
        <path opacity="0.5" d="M50.7347 3.2815C50.7893 3.10114 50.8747 2.82919 50.8747 2.48396C50.8747 0.973412 49.6538 -0.253906 48.1544 -0.253906H21.7392C20.2398 -0.253906 19.019 0.974822 19.019 2.48396C19.019 2.79396 19.075 3.09973 19.1912 3.41678C19.201 3.44496 19.2108 3.47173 19.222 3.4985C19.292 3.67323 19.376 3.80146 19.425 3.87332L34.9104 30.8898L50.6157 3.55768C50.6633 3.47173 50.7053 3.37591 50.7347 3.2815Z" fill="#6144CF"/>
    </g>
    <defs>
        <clipPath id="clip0">
            <rect width="70" height="62" fill="white"/>
        </clipPath>
    </defs>
</svg>
