<svg width="111" height="99" viewBox="0 0 111 99" fill="none" xmlns="http://www.w3.org/2000/svg">
<g clip-path="url(#clip0_2661:47250)">
<path opacity="0.7" d="M30.4806 5.54791C30.4628 5.50545 30.4451 5.463 30.4318 5.41831C30.2475 4.91557 30.1587 4.4307 30.1587 3.93913C30.1587 1.54383 32.0945 -0.402342 34.4722 -0.402342H4.31346C1.93584 -0.404576 0 1.54383 0 3.93689C0 4.424 0.09102 4.92227 0.27306 5.41831C0.2886 5.463 0.30414 5.50769 0.32412 5.55014C0.43512 5.82497 0.5661 6.02607 0.6438 6.14226L33.9216 64.1969L36.7565 69.0478C36.8009 69.1237 36.8498 69.1975 36.9031 69.2667C37.7378 70.3549 38.9721 70.9783 40.2886 70.9783C41.6672 70.9783 42.9348 70.308 43.7673 69.1371C43.8073 69.0813 43.8428 69.0254 43.8761 68.9673L55.3579 48.9827L30.8025 6.14226C30.7248 6.02607 30.5938 5.82498 30.4806 5.54791ZM40.2908 66.9541V68.8645L40.2375 66.9876L40.2908 66.9541Z" fill="white"/>
<path opacity="0.6" d="M106.517 -0.402344H76.3564C78.734 -0.402344 80.6699 1.54607 80.6699 3.93913C80.6699 4.48656 80.5367 4.9178 80.4479 5.20381C80.4012 5.35351 80.3369 5.50545 80.2592 5.64175L55.3574 48.9849L64.0798 64.1991L66.917 69.05C66.9614 69.126 67.0102 69.1997 67.0635 69.269C67.8982 70.3571 69.1325 70.9805 70.449 70.9805C71.8276 70.9805 73.0952 70.3102 73.9255 69.1394C73.9655 69.0835 74.001 69.0277 74.0343 68.9696L110.42 5.64175C110.496 5.50545 110.562 5.35351 110.609 5.20381C110.695 4.9178 110.831 4.48656 110.831 3.93913C110.831 1.54607 108.895 -0.402344 106.517 -0.402344ZM70.449 68.8668L70.3957 66.9876L70.449 66.9564V68.8668Z" fill="white"/>
<path d="M32.9383 98.3159H32.7874C31.4221 95.6368 29.8725 92.3634 28.5427 89.2442C27.1952 92.3634 25.6456 95.6368 24.247 98.3159H24.1116C22.309 94.5867 20.271 89.8363 18.6016 85.5977H21.2123C22.1558 88.2097 23.2858 91.0429 24.3802 93.5678C25.559 91.0407 26.7556 88.2097 27.7835 85.5977H29.2997C30.3098 88.2097 31.5242 91.0429 32.7208 93.5678C33.7997 91.0407 34.9274 88.2097 35.8554 85.5977H38.4839C36.8144 89.8363 34.7587 94.5867 32.9383 98.3159Z" fill="white"/>
<path d="M46.6879 94.4114H40.4364C40.6051 95.752 41.2445 96.4469 43.0471 96.4469C43.924 96.4469 45.1694 96.2257 46.1307 95.9375V97.6848C45.2205 98.058 43.7731 98.3127 42.5077 98.3127C39.7948 98.3127 37.9922 96.6681 37.9922 93.6316C37.9922 90.7492 39.7615 88.8164 42.39 88.8164C45.0007 88.8164 46.7701 90.6643 46.7701 93.4282C46.7723 93.75 46.7212 94.141 46.6879 94.4114ZM40.4209 92.8875H44.3636C44.2126 91.5133 43.571 90.6151 42.3922 90.6151C41.2134 90.6151 40.5541 91.5133 40.4209 92.8875Z" fill="white"/>
<path d="M55.3333 87.463C52.5694 87.463 50.7512 89.2282 50.7512 91.8738C50.7512 94.5193 52.6205 96.2823 55.4199 96.2823C56.2124 96.2823 57.5422 96.0968 58.2326 95.8242V97.7235C57.2713 98.0788 55.8239 98.3178 54.6429 98.3178C50.7845 98.3178 48.2227 95.7416 48.2227 91.8738C48.2227 88.006 50.749 85.4297 54.5408 85.4297C55.6863 85.4297 57.1026 85.6665 58.0617 86.024V87.9233C57.3202 87.6328 56.0725 87.463 55.3333 87.463Z" fill="white"/>
<path d="M59.3027 93.5645C59.3027 90.7157 61.2586 88.8164 64.189 88.8164C67.0861 88.8164 69.0574 90.7157 69.0574 93.5645C69.0574 96.4134 67.0861 98.3127 64.189 98.3127C61.2586 98.3127 59.3027 96.4134 59.3027 93.5645ZM66.6154 93.5645C66.6154 91.8351 65.6209 90.6799 64.1734 90.6799C62.7082 90.6799 61.747 91.8351 61.747 93.5645C61.747 95.294 62.706 96.4469 64.1734 96.4469C65.6231 96.4469 66.6154 95.294 66.6154 93.5645Z" fill="white"/>
<path d="M74.4039 98.3186H74.2685C72.4991 95.2485 70.9496 92.2634 69.4844 88.9922H72.0285C72.6346 90.7216 73.4271 92.5024 74.3528 94.2654C75.2297 92.5002 76.0378 90.7216 76.6616 88.9922H79.1902C77.7228 92.2634 76.1555 95.2485 74.4039 98.3186Z" fill="white"/>
<path d="M88.3227 94.4114H82.0712C82.2399 95.752 82.8792 96.4469 84.6819 96.4469C85.5588 96.4469 86.8042 96.2257 87.7654 95.9375V97.6848C86.8552 98.058 85.4078 98.3127 84.1424 98.3127C81.4296 98.3127 79.627 96.6681 79.627 93.6316C79.627 90.7492 81.3963 88.8164 84.0248 88.8164C86.6355 88.8164 88.4048 90.6643 88.4048 93.4282C88.407 93.75 88.356 94.141 88.3227 94.4114ZM82.0556 92.8875H85.9983C85.8474 91.5133 85.2058 90.6151 84.027 90.6151C82.8482 90.6151 82.191 91.5133 82.0556 92.8875Z" fill="white"/>
<path d="M92.6352 91.4441V98.1429H90.2754V88.9013C91.1345 88.9013 91.8427 89.0868 92.431 89.4443C93.4078 89.0197 94.4024 88.8164 95.5812 88.8164V91.0553C94.3535 91.0553 93.3945 91.2072 92.6352 91.4441Z" fill="white"/>
<path d="M80.4521 5.2038C80.5386 4.9178 80.674 4.48656 80.674 3.93913C80.674 1.54383 78.7382 -0.402344 76.3606 -0.402344H34.4736C32.096 -0.402344 30.1602 1.54607 30.1602 3.93913C30.1602 4.4307 30.249 4.91557 30.4332 5.41831C30.4488 5.463 30.4643 5.50545 30.4821 5.54791C30.5931 5.82497 30.7263 6.02831 30.804 6.14226L55.3594 48.9827L80.2633 5.64175C80.3388 5.50545 80.4054 5.35351 80.4521 5.2038Z" fill="white"/>
</g>
<defs>
<clipPath id="clip0_2661:47250">
<rect width="111" height="98.3143" fill="white"/>
</clipPath>
</defs>
</svg>
