<svg width="56" height="49" viewBox="0 0 56 49" fill="none" xmlns="http://www.w3.org/2000/svg">
    <g clip-path="url(#clip0)">
        <path opacity="0.7" d="M15.9155 2.76444C15.9067 2.74328 15.8979 2.72212 15.8913 2.69985C15.8 2.44928 15.756 2.20762 15.756 1.96262C15.756 0.768806 16.7152 -0.201171 17.8933 -0.201171H2.9498C1.7717 -0.202285 0.8125 0.768807 0.8125 1.96151C0.8125 2.20428 0.8576 2.45262 0.9478 2.69985C0.9555 2.72212 0.9632 2.7444 0.9731 2.76556C1.0281 2.90253 1.093 3.00276 1.1315 3.06067L17.6205 31.9952L19.0252 34.4129C19.0472 34.4507 19.0714 34.4875 19.0978 34.522C19.5114 35.0644 20.123 35.3751 20.7753 35.3751C21.4584 35.3751 22.0865 35.041 22.499 34.4574C22.5188 34.4296 22.5364 34.4017 22.5529 34.3728L28.2421 24.4124L16.075 3.06067C16.0365 3.00276 15.9716 2.90253 15.9155 2.76444ZM20.7764 33.3694V34.3216L20.75 33.3861L20.7764 33.3694Z" fill="white"/>
        <path opacity="0.6" d="M53.5917 -0.201172H38.6471C39.8252 -0.201172 40.7844 0.76992 40.7844 1.96262C40.7844 2.23547 40.7184 2.4504 40.6744 2.59294C40.6513 2.66756 40.6194 2.74328 40.5809 2.81121L28.2422 24.4135L32.5641 31.9963L33.9699 34.414C33.9919 34.4519 34.0161 34.4886 34.0425 34.5231C34.4561 35.0655 35.0677 35.3762 35.72 35.3762C36.4031 35.3762 37.0312 35.0421 37.4426 34.4585C37.4624 34.4307 37.48 34.4029 37.4965 34.3739L55.5255 2.81121C55.5629 2.74328 55.5959 2.66756 55.619 2.59294C55.6619 2.4504 55.729 2.23547 55.729 1.96262C55.729 0.76992 54.7698 -0.201172 53.5917 -0.201172ZM35.72 34.3227L35.6936 33.3861L35.72 33.3705V34.3227Z" fill="white"/>
        <path d="M17.1331 49.0009H17.0583C16.3818 47.6657 15.614 46.0342 14.9551 44.4796C14.2874 46.0342 13.5196 47.6657 12.8266 49.0009H12.7595C11.8663 47.1422 10.8565 44.7747 10.0293 42.6621H11.3229C11.7904 43.9639 12.3503 45.376 12.8926 46.6344C13.4767 45.3749 14.0696 43.9639 14.5789 42.6621H15.3302C15.8307 43.9639 16.4324 45.376 17.0253 46.6344C17.5599 45.3749 18.1187 43.9639 18.5785 42.6621H19.8809C19.0537 44.7747 18.0351 47.1422 17.1331 49.0009Z" fill="white"/>
        <path d="M23.9454 47.0561H20.8478C20.9314 47.7243 21.2482 48.0706 22.1414 48.0706C22.5759 48.0706 23.193 47.9604 23.6693 47.8167V48.6876C23.2183 48.8736 22.5011 49.0005 21.8741 49.0005C20.5299 49.0005 19.6367 48.1809 19.6367 46.6675C19.6367 45.2309 20.5134 44.2676 21.8158 44.2676C23.1094 44.2676 23.9861 45.1886 23.9861 46.5661C23.9872 46.7265 23.9619 46.9214 23.9454 47.0561ZM20.8401 46.2966H22.7937C22.7189 45.6117 22.401 45.1641 21.8169 45.1641C21.2328 45.1641 20.9061 45.6117 20.8401 46.2966Z" fill="white"/>
        <path d="M28.2284 43.5915C26.8589 43.5915 25.958 44.4713 25.958 45.7899C25.958 47.1084 26.8842 47.9871 28.2713 47.9871C28.664 47.9871 29.3229 47.8946 29.665 47.7588V48.7054C29.1887 48.8824 28.4715 49.0016 27.8863 49.0016C25.9745 49.0016 24.7051 47.7176 24.7051 45.7899C24.7051 43.8622 25.9569 42.5781 27.8357 42.5781C28.4033 42.5781 29.1051 42.6962 29.5803 42.8744V43.8209C29.2129 43.6762 28.5947 43.5915 28.2284 43.5915Z" fill="white"/>
        <path d="M30.1973 46.6341C30.1973 45.2142 31.1664 44.2676 32.6184 44.2676C34.0539 44.2676 35.0307 45.2142 35.0307 46.6341C35.0307 48.0539 34.0539 49.0005 32.6184 49.0005C31.1664 49.0005 30.1973 48.0539 30.1973 46.6341ZM33.8207 46.6341C33.8207 45.7721 33.3279 45.1964 32.6107 45.1964C31.8847 45.1964 31.4084 45.7721 31.4084 46.6341C31.4084 47.496 31.8836 48.0706 32.6107 48.0706C33.329 48.0706 33.8207 47.496 33.8207 46.6341Z" fill="white"/>
        <path d="M37.6798 48.9999H37.6127C36.736 47.4697 35.9682 45.9819 35.2422 44.3516H36.5028C36.8031 45.2135 37.1958 46.1011 37.6545 46.9797C38.089 46.1 38.4894 45.2135 38.7985 44.3516H40.0514C39.3243 45.9819 38.5477 47.4697 37.6798 48.9999Z" fill="white"/>
        <path d="M44.5763 47.0561H41.4787C41.5623 47.7243 41.8791 48.0706 42.7723 48.0706C43.2068 48.0706 43.8239 47.9604 44.3002 47.8167V48.6876C43.8492 48.8736 43.132 49.0005 42.505 49.0005C41.1608 49.0005 40.2676 48.1809 40.2676 46.6675C40.2676 45.2309 41.1443 44.2676 42.4467 44.2676C43.7403 44.2676 44.617 45.1886 44.617 46.5661C44.6181 46.7265 44.5928 46.9214 44.5763 47.0561ZM41.471 46.2966H43.4246C43.3498 45.6117 43.0319 45.1641 42.4478 45.1641C41.8637 45.1641 41.5381 45.6117 41.471 46.2966Z" fill="white"/>
        <path d="M46.7123 45.5772V48.9159H45.543V44.3099C45.9687 44.3099 46.3196 44.4023 46.6111 44.5805C47.0951 44.3689 47.5879 44.2676 48.172 44.2676V45.3834C47.5637 45.3834 47.0885 45.4592 46.7123 45.5772Z" fill="white"/>
        <path d="M40.6753 2.59294C40.7182 2.4504 40.7853 2.23547 40.7853 1.96262C40.7853 0.768806 39.8261 -0.201172 38.648 -0.201172H17.8932C16.7151 -0.201172 15.7559 0.76992 15.7559 1.96262C15.7559 2.20762 15.7999 2.44928 15.8912 2.69985C15.8989 2.72212 15.9066 2.74328 15.9154 2.76444C15.9704 2.90253 16.0364 3.00387 16.0749 3.06067L28.242 24.4124L40.5818 2.81121C40.6192 2.74328 40.6522 2.66756 40.6753 2.59294Z" fill="white"/>
        <path d="M40.6753 2.59294C40.7182 2.4504 40.7853 2.23547 40.7853 1.96262C40.7853 0.768806 39.8261 -0.201172 38.648 -0.201172H17.8932C16.7151 -0.201172 15.7559 0.76992 15.7559 1.96262C15.7559 2.20762 15.7999 2.44928 15.8912 2.69985C15.8989 2.72212 15.9066 2.74328 15.9154 2.76444C15.9704 2.90253 16.0364 3.00387 16.0749 3.06067L28.242 24.4124L40.5818 2.81121C40.6192 2.74328 40.6522 2.66756 40.6753 2.59294Z" fill="white"/>
    </g>
    <defs>
        <clipPath id="clip0">
            <rect width="55" height="49" fill="white" transform="translate(0.8125)"/>
        </clipPath>
    </defs>
</svg>
