<svg width="25" height="25" viewBox="0 0 25 25" fill="none" xmlns="http://www.w3.org/2000/svg">
    <path d="M24.1117 19.7007L19.997 15.586C20.7452 14.0898 21.2439 12.3441 21.2439 10.5985C21.2439 4.73815 16.5058 0 10.6454 0C4.78504 0 0.046875 4.73815 0.046875 10.5985C0.046875 16.4589 4.78504 21.197 10.6454 21.197C12.391 21.197 14.1367 20.6983 15.6329 19.9501L19.7477 24.0648C20.9945 25.3117 22.8649 25.3117 24.1117 24.0648C25.2339 22.818 25.2339 20.9476 24.1117 19.7007ZM10.6454 18.7032C6.15661 18.7032 2.54064 15.0873 2.54064 10.5985C2.54064 6.10973 6.15661 2.49377 10.6454 2.49377C15.1342 2.49377 18.7501 6.10973 18.7501 10.5985C18.7501 15.0873 15.1342 18.7032 10.6454 18.7032Z" fill="var(--thirdBackgroundColor)"/>
</svg>