<svg width="56" height="56" viewBox="0 0 56 56" fill="none" xmlns="http://www.w3.org/2000/svg">
    <g clip-path="url(#clip0)" filter="url(#filter0_d)">
        <path d="M28 44C39.0457 44 48 35.0457 48 24C48 12.9543 39.0457 4 28 4C16.9543 4 8 12.9543 8 24C8 35.0457 16.9543 44 28 44Z" fill="white"/>
        <path d="M47.9997 23.9998C47.9997 16.0706 43.3852 9.21938 36.6953 5.98438V42.0152C43.3852 38.7803 47.9997 31.9291 47.9997 23.9998Z" fill="#D80027"/>
        <path d="M8 23.9998C8 31.9291 12.6145 38.7803 19.3044 42.0153V5.98438C12.6145 9.21938 8 16.0706 8 23.9998Z" fill="#6DA544"/>
        <path d="M22.7822 24.0009C22.7822 26.8823 25.1182 29.2183 27.9997 29.2183C30.8811 29.2183 33.2171 26.8823 33.2171 24.0009V22.2617H22.7822V24.0009Z" fill="#6DA544"/>
        <path d="M34.9561 20.5204H29.7387C29.7387 19.5599 28.96 18.7812 27.9995 18.7812C27.0391 18.7812 26.2604 19.5599 26.2604 20.5204H21.043C21.043 21.4809 21.8796 22.2595 22.84 22.2595H22.7821C22.7821 23.2201 23.5607 23.9987 24.5212 23.9987C24.5212 24.9592 25.2998 25.7378 26.2604 25.7378H29.7387C30.6992 25.7378 31.4778 24.9592 31.4778 23.9987C32.4384 23.9987 33.2169 23.2201 33.2169 22.2595H33.159C34.1195 22.2595 34.9561 21.4809 34.9561 20.5204Z" fill="#FF9811"/>
    </g>
    <defs>
        <filter id="filter0_d" x="0" y="0" width="56" height="56" filterUnits="userSpaceOnUse" color-interpolation-filters="sRGB">
            <feFlood flood-opacity="0" result="BackgroundImageFix"/>
            <feColorMatrix in="SourceAlpha" type="matrix" values="0 0 0 0 0 0 0 0 0 0 0 0 0 0 0 0 0 0 127 0" result="hardAlpha"/>
            <feOffset dy="4"/>
            <feGaussianBlur stdDeviation="4"/>
            <feColorMatrix type="matrix" values="0 0 0 0 0 0 0 0 0 0 0 0 0 0 0 0 0 0 0.1 0"/>
            <feBlend mode="normal" in2="BackgroundImageFix" result="effect1_dropShadow"/>
            <feBlend mode="normal" in="SourceGraphic" in2="effect1_dropShadow" result="shape"/>
        </filter>
        <clipPath id="clip0">
        <rect width="40" height="40" fill="white" transform="translate(8 4)"/>
        </clipPath>
    </defs>
</svg>
