<svg width="31" height="32" viewBox="0 0 31 32" fill="none" xmlns="http://www.w3.org/2000/svg">
    <path d="M30.5846 9.84274L26.6999 5.95798C26.598 5.85612 26.4682 5.78675 26.327 5.75865C26.1857 5.73055 26.0392 5.74497 25.9061 5.8001C25.773 5.85523 25.6593 5.94858 25.5792 6.06836C25.4992 6.18813 25.4565 6.32895 25.4565 6.47301V7.687H23.9997V3.55944C23.9989 2.85135 23.7173 2.17249 23.2166 1.67179C22.7159 1.1711 22.037 0.889459 21.3289 0.888672H9.67463C8.96654 0.889459 8.28768 1.1711 7.78698 1.67179C7.28628 2.17249 7.00465 2.85135 7.00386 3.55944V19.3413H5.54708V18.1273C5.54707 17.9832 5.50435 17.8424 5.42431 17.7226C5.34427 17.6029 5.23051 17.5095 5.09742 17.4544C4.96433 17.3992 4.81788 17.3848 4.67659 17.4129C4.5353 17.441 4.40552 17.5104 4.30365 17.6123L0.41889 21.497C0.282301 21.6336 0.205566 21.8189 0.205566 22.012C0.205566 22.2052 0.282301 22.3905 0.41889 22.5271L4.30365 26.4118C4.73619 26.8724 5.56741 26.5257 5.54708 25.8968V24.6828H7.00386V28.8104C7.00465 29.5185 7.28628 30.1973 7.78698 30.698C8.28768 31.1987 8.96654 31.4804 9.67463 31.4811H21.3289C22.037 31.4804 22.7159 31.1987 23.2166 30.698C23.7173 30.1973 23.9989 29.5185 23.9997 28.8104V13.0285H25.4565V14.2425C25.4362 14.8716 26.2673 15.218 26.6999 14.7576L30.5846 10.8728C30.7212 10.7362 30.798 10.5509 30.798 10.3578C30.798 10.1646 30.7212 9.97933 30.5846 9.84274ZM9.67463 2.34546H21.3289C21.6508 2.34583 21.9593 2.47385 22.1869 2.70143C22.4145 2.92902 22.5425 3.23759 22.5429 3.55944V4.77343H8.46064V3.55944C8.46101 3.23759 8.58904 2.92902 8.81662 2.70143C9.04421 2.47385 9.35278 2.34583 9.67463 2.34546ZM21.3289 30.0244H9.67463C9.35278 30.024 9.04421 29.896 8.81662 29.6684C8.58904 29.4408 8.46101 29.1322 8.46064 28.8104V27.5964H22.5429V28.8104C22.5425 29.1322 22.4145 29.4408 22.1869 29.6684C21.9593 29.896 21.6508 30.024 21.3289 30.0244ZM26.9132 12.484V12.3001C26.9132 12.107 26.8365 11.9217 26.6999 11.7851C26.5633 11.6485 26.378 11.5718 26.1849 11.5718H20.3577C20.1645 11.5718 19.9793 11.6485 19.8427 11.7851C19.7061 11.9217 19.6293 12.107 19.6293 12.3001C19.6293 12.4933 19.7061 12.6786 19.8427 12.8152C19.9793 12.9518 20.1645 13.0285 20.3577 13.0285H22.5429V26.1396H8.46064V24.6828H10.6458C10.839 24.6828 11.0243 24.6061 11.1609 24.4695C11.2975 24.3329 11.3742 24.1476 11.3742 23.9544C11.3742 23.7612 11.2975 23.576 11.1609 23.4394C11.0243 23.3028 10.839 23.226 10.6458 23.226H4.81868C4.6255 23.226 4.44023 23.3028 4.30363 23.4394C4.16703 23.576 4.09029 23.7612 4.09029 23.9544V24.1383L1.96405 22.012L4.09029 19.8858V20.0697C4.09029 20.2628 4.16703 20.4481 4.30363 20.5847C4.44023 20.7213 4.6255 20.7981 4.81868 20.7981H10.6458C10.839 20.7981 11.0243 20.7213 11.1609 20.5847C11.2975 20.4481 11.3742 20.2628 11.3742 20.0697C11.3742 19.8765 11.2975 19.6912 11.1609 19.5546C11.0243 19.418 10.839 19.3413 10.6458 19.3413H8.46064V6.23021H22.5429V7.687H20.3577C20.1645 7.687 19.9793 7.76374 19.8427 7.90034C19.7061 8.03694 19.6293 8.22221 19.6293 8.41539C19.6293 8.60857 19.7061 8.79384 19.8427 8.93044C19.9793 9.06704 20.1645 9.14378 20.3577 9.14378H26.1849C26.378 9.14378 26.5633 9.06704 26.6999 8.93044C26.8365 8.79384 26.9132 8.60857 26.9132 8.41539V8.23153L29.0395 10.3578L26.9132 12.484Z" fill="var(--primaryBackgroundColor)"/>
    <path d="M14.5306 13.0281H16.9586C17.1517 13.0283 17.3369 13.1051 17.4734 13.2416C17.61 13.3782 17.6868 13.5633 17.687 13.7565C17.687 13.9496 17.7637 14.1349 17.9003 14.2715C18.0369 14.4081 18.2222 14.4849 18.4154 14.4849C18.6086 14.4849 18.7938 14.4081 18.9304 14.2715C19.067 14.1349 19.1438 13.9496 19.1438 13.7565C19.1431 13.1771 18.9127 12.6217 18.5031 12.212C18.0934 11.8024 17.538 11.5719 16.9586 11.5713H16.2302V10.3573C16.2302 10.1641 16.1535 9.97885 16.0169 9.84225C15.8803 9.70565 15.695 9.62891 15.5018 9.62891C15.3086 9.62891 15.1234 9.70565 14.9868 9.84225C14.8502 9.97885 14.7734 10.1641 14.7734 10.3573V11.5713H14.5306C13.8223 11.5713 13.143 11.8527 12.6421 12.3535C12.1412 12.8544 11.8599 13.5337 11.8599 14.2421C11.8599 14.9504 12.1412 15.6297 12.6421 16.1306C13.143 16.6314 13.8223 16.9128 14.5306 16.9128H16.473C16.795 16.9128 17.1038 17.0407 17.3314 17.2684C17.5591 17.4961 17.687 17.8048 17.687 18.1268C17.687 18.4488 17.5591 18.7576 17.3314 18.9852C17.1038 19.2129 16.795 19.3408 16.473 19.3408H14.045C13.8519 19.3406 13.6668 19.2638 13.5302 19.1272C13.3937 18.9907 13.3169 18.8055 13.3166 18.6124C13.3166 18.4192 13.2399 18.234 13.1033 18.0974C12.9667 17.9608 12.7814 17.884 12.5883 17.884C12.3951 17.884 12.2098 17.9608 12.0732 18.0974C11.9366 18.234 11.8599 18.4192 11.8599 18.6124C11.8605 19.1918 12.0909 19.7472 12.5006 20.1569C12.9103 20.5665 13.4657 20.7969 14.045 20.7976H14.7734V22.0116C14.7734 22.2048 14.8502 22.39 14.9868 22.5266C15.1234 22.6632 15.3086 22.74 15.5018 22.74C15.695 22.74 15.8803 22.6632 16.0169 22.5266C16.1535 22.39 16.2302 22.2048 16.2302 22.0116V20.7976H16.473C17.1813 20.7976 17.8607 20.5162 18.3615 20.0153C18.8624 19.5145 19.1438 18.8351 19.1438 18.1268C19.1438 17.4185 18.8624 16.7392 18.3615 16.2383C17.8607 15.7374 17.1813 15.456 16.473 15.456H14.5306C14.2087 15.456 13.8999 15.3281 13.6722 15.1005C13.4445 14.8728 13.3166 14.564 13.3166 14.2421C13.3166 13.9201 13.4445 13.6113 13.6722 13.3836C13.8999 13.156 14.2087 13.0281 14.5306 13.0281Z" fill="var(--primaryBackgroundColor)"/>
</svg>