<svg width="20" height="20" viewBox="0 0 20 20" fill="none" xmlns="http://www.w3.org/2000/svg">
<g clip-path="url(#clip0_2364_53350)">
<path d="M16.9565 0H3.04349C1.3652 0 0 1.3652 0 3.04349V12.6087C0 14.287 1.3652 15.6522 3.04349 15.6522H12.4287L16.6487 19.873C16.7322 19.9557 16.8435 20 16.9566 20C17.0122 20 17.0687 19.9887 17.1227 19.9669C17.2852 19.9 17.3913 19.7408 17.3913 19.5652V15.6217C18.8644 15.4096 20 14.1391 20 12.6087V3.04349C20 1.3652 18.6348 0 16.9565 0ZM19.1304 12.6087C19.1304 13.8078 18.1548 14.7826 16.9565 14.7826C16.7165 14.7826 16.5217 14.9774 16.5217 15.2174V18.5156L12.9165 14.9095C12.8348 14.8287 12.7243 14.7826 12.6087 14.7826H3.04349C1.84524 14.7826 0.869592 13.8078 0.869592 12.6087V3.04349C0.869592 1.84435 1.84524 0.869592 3.04349 0.869592H16.9565C18.1548 0.869592 19.1304 1.84439 19.1304 3.04349V12.6087V12.6087Z" fill="var(--primaryBackgroundColor)"/>
<path d="M9.99997 10.4355C9.28082 10.4355 8.69562 11.0207 8.69562 11.7399C8.69562 12.459 9.28082 13.0442 9.99997 13.0442C10.7191 13.0442 11.3043 12.459 11.3043 11.7399C11.3043 11.0207 10.7191 10.4355 9.99997 10.4355ZM9.99997 12.1747C9.75997 12.1747 9.56517 11.979 9.56517 11.7399C9.56517 11.5007 9.75997 11.3051 9.99997 11.3051C10.24 11.3051 10.4348 11.5007 10.4348 11.7399C10.4348 11.979 10.24 12.1747 9.99997 12.1747Z" fill="var(--primaryBackgroundColor)"/>
<path d="M11.3895 3.02501C11.1435 2.76068 10.7956 2.60938 10.4348 2.60938H9.5652C9.20434 2.60938 8.85739 2.76068 8.61127 3.02501C8.3652 3.28849 8.23908 3.64588 8.26431 4.01285L8.63214 8.29718C8.68256 9.0085 9.28085 9.56586 9.99996 9.56586C10.713 9.56586 11.3113 9.00846 11.3608 8.30411L11.7356 4.00674C11.7617 3.64678 11.6356 3.28939 11.3895 3.02501ZM10.8696 3.93806L10.4939 8.23633C10.4756 8.49459 10.2583 8.69631 9.99303 8.69631C9.73391 8.69631 9.51739 8.49459 9.49823 8.22935L9.13126 3.94503C9.12258 3.82242 9.16342 3.70588 9.2469 3.61719C9.33038 3.52849 9.44341 3.47893 9.56516 3.47893H10.4348C10.5565 3.47893 10.6695 3.52849 10.753 3.61719C10.8365 3.70588 10.8774 3.82242 10.8696 3.93806Z" fill="var(--primaryBackgroundColor)"/>
</g>
<defs>
<clipPath id="clip0_2364_53350">
<rect width="20" height="20" fill="white"/>
</clipPath>
</defs>
</svg>
