<svg width="20" height="19" viewBox="0 0 20 19" fill="none" xmlns="http://www.w3.org/2000/svg">
    <path d="M18.9001 1.11796C18.1671 0.374555 17.2837 -0.012092 16.3422 0.00028824C15.4614 0.0117282 14.5971 0.387131 13.9087 1.05735L13.9022 1.06366L4.96566 10.1763C4.07148 11.0825 4.07125 12.3982 4.96512 13.3046C5.39855 13.7442 5.95148 13.9862 6.52214 13.9862C6.52222 13.9862 6.52234 13.9862 6.52242 13.9862C7.09999 13.9862 7.65656 13.7441 8.0923 13.302L14.269 6.9731L13.1524 5.87694L6.97843 12.2031C6.84109 12.3424 6.6791 12.4192 6.52218 12.4192C6.36781 12.4192 6.21765 12.3464 6.07597 12.2027C5.66472 11.7856 5.93914 11.4175 6.07789 11.2769L15.003 2.17596C15.856 1.35071 16.9487 1.36764 17.7892 2.21996C18.7865 3.23126 18.5081 4.4185 17.7899 5.14647L7.63074 15.6697C6.93265 16.3767 6.04941 16.7661 5.14336 16.7662C5.1432 16.7662 5.14304 16.7662 5.14289 16.7662C4.23715 16.7662 3.37785 16.3803 2.65801 15.6504C0.972973 13.9416 1.4436 11.9347 2.65777 10.7032L10.3568 2.9831L9.25214 1.87492L1.55137 9.5967L1.54844 9.59967C0.582778 10.5784 0.0334037 11.8126 0.00152878 13.0748C-0.0324946 14.4207 0.501958 15.6924 1.54715 16.7524C2.55254 17.7719 3.82945 18.3333 5.14301 18.3333C5.14316 18.3333 5.14351 18.3333 5.14367 18.3333C6.4716 18.3331 7.75046 17.7774 8.74468 16.7686L18.9038 6.24537C20.3667 4.75951 20.3654 2.60386 18.9001 1.11796Z" fill="var(--primaryBackgroundColor)"/>
</svg>