<svg width="15" height="15" viewBox="0 0 15 15" fill="none" xmlns="http://www.w3.org/2000/svg">
<g clip-path="url(#clip0_2378_51932)">
<path d="M13.8788 11.8517L11.5063 9.47927C11.5063 9.47921 11.5063 9.47919 11.5062 9.47911C11.5061 9.47903 11.5061 9.47903 11.506 9.47895L10.658 8.63088C10.3715 8.34437 9.90523 8.34427 9.61865 8.63088L9.51469 8.73483L9.15654 8.37668C9.8582 7.53539 10.281 6.4538 10.281 5.27523C10.2809 2.60124 8.10547 0.425781 5.43145 0.425781C2.75744 0.425781 0.582031 2.60124 0.582031 5.27523C0.582031 7.94922 2.75744 10.1247 5.43145 10.1247C6.61002 10.1247 7.6916 9.7019 8.5329 9.00027L8.89105 9.3584L8.78707 9.46238C8.50062 9.7489 8.50062 10.2151 8.78712 10.5017L12.008 13.7225C12.2951 14.0097 12.7601 14.0098 13.0473 13.7225L13.8788 12.8911C14.1654 12.6045 14.1654 12.1383 13.8788 11.8517ZM5.43145 9.24278C3.24375 9.24278 1.46391 7.46294 1.46391 5.27523C1.46391 3.08752 3.24375 1.30769 5.43145 1.30769C7.61916 1.30769 9.39902 3.08752 9.39902 5.27523C9.39902 7.46294 7.61916 9.24278 5.43145 9.24278ZM9.51467 9.98204L10.1383 9.35845L10.5708 9.79095L9.94716 10.4145L9.51467 9.98204ZM12.5276 12.995L10.5708 11.0381L11.1943 10.4145L13.1512 12.3714L12.5276 12.995Z" fill="#FF7A00" stroke="#FF7A00"/>
<path d="M5.43315 2.1875C5.18962 2.1875 4.99219 2.38493 4.99219 2.62847C4.99219 2.872 5.18962 3.06943 5.43315 3.06943C6.64833 3.06943 7.63694 4.05796 7.63694 5.27308C7.63694 5.51662 7.83437 5.71405 8.0779 5.71405C8.32144 5.71405 8.51887 5.51662 8.51887 5.27308C8.51887 3.57168 7.13461 2.1875 5.43315 2.1875Z" fill="#FF7A00"/>
</g>
<defs>
<clipPath id="clip0_2378_51932">
<rect width="15" height="14.523" fill="white"/>
</clipPath>
</defs>
</svg>