<svg width="16" height="16" viewBox="0 0 16 16" fill="none" xmlns="http://www.w3.org/2000/svg">
<g clip-path="url(#clip0_2378_51958)">
<path d="M8.28884 1.47266C4.33225 1.47266 1.11328 4.69163 1.11328 8.64822C1.11328 12.6048 4.33225 15.8237 8.28884 15.8237C12.2454 15.8237 15.4644 12.6047 15.4644 8.64816C15.4644 4.69157 12.2454 1.47266 8.28884 1.47266ZM8.28884 14.1349C5.26346 14.1349 2.80208 11.6735 2.80208 8.64816C2.80208 5.62278 5.26346 3.16146 8.28884 3.16146C11.3142 3.16146 13.7756 5.62284 13.7756 8.64822C13.7756 11.6736 11.3142 14.1349 8.28884 14.1349Z" fill="#27AE60"/>
<path d="M9.6118 6.7747L7.65088 8.73574L6.96882 8.05375C6.63911 7.72404 6.10444 7.72404 5.77467 8.05375C5.4449 8.38346 5.4449 8.91813 5.77467 9.2479L7.05383 10.5271C7.21218 10.6855 7.42694 10.7744 7.65093 10.7744C7.87492 10.7744 8.08968 10.6855 8.24804 10.5271L10.8061 7.96891C11.1358 7.63915 11.1358 7.10453 10.806 6.77476C10.4762 6.44482 9.94163 6.44494 9.6118 6.7747Z" fill="#27AE60"/>
</g>
<defs>
<clipPath id="clip0_2378_51958">
<rect width="14.9876" height="14.9876" fill="white" transform="translate(0.796875 0.996094)"/>
</clipPath>
</defs>
</svg>