<svg width="15" height="15" viewBox="0 0 15 15" fill="none" xmlns="http://www.w3.org/2000/svg">
    <path d="M7.50197 0.277344C3.6411 0.277344 0.5 3.41844 0.5 7.27932C0.5 11.1402 3.6411 14.2812 7.50197 14.2812C11.3628 14.2812 14.5039 11.1401 14.5039 7.27926C14.5039 3.41839 11.3628 0.277344 7.50197 0.277344ZM7.50197 12.6333C4.54978 12.6333 2.14795 10.2315 2.14795 7.27926C2.14795 4.32707 4.54978 1.92529 7.50197 1.92529C10.4542 1.92529 12.856 4.32712 12.856 7.27932C12.856 10.2315 10.4542 12.6333 7.50197 12.6333Z" fill="#FFB800"/>
    <path d="M10.1587 7.34322H7.94404V4.27671C7.94404 3.99442 7.71525 3.76562 7.43296 3.76562C7.15067 3.76562 6.92188 3.99442 6.92188 4.27671V7.8543C6.92188 8.13659 7.15067 8.36538 7.43296 8.36538H10.1587C10.441 8.36538 10.6698 8.13659 10.6698 7.8543C10.6698 7.57201 10.441 7.34322 10.1587 7.34322Z" fill="#FFB800"/>
</svg>