<svg width="49" height="49" viewBox="0 0 59 59" fill="none" xmlns="http://www.w3.org/2000/svg">
    <path d="M29.5 0C13.2341 0 0 13.2334 0 29.5C0 45.7666 13.2341 59 29.5 59C45.7666 59 59 45.7666 59 29.5C59 13.2334 45.7659 0 29.5 0ZM29.5 54.6935C15.6085 54.6935 4.30654 43.3915 4.30654 29.5C4.30654 15.6085 15.6085 4.30654 29.5 4.30654C43.3915 4.30654 54.6935 15.6084 54.6935 29.4993C54.6935 43.3915 43.3915 54.6935 29.5 54.6935Z" fill="var(--primaryBackgroundColor)"/>
    <path d="M39.5495 29.5007H30.2186V16.581C30.2186 15.3917 29.2547 14.4277 28.0654 14.4277C26.876 14.4277 25.9121 15.3917 25.9121 16.581V31.654C25.9121 32.8433 26.876 33.8073 28.0654 33.8073H39.5495C40.7389 33.8073 41.7028 32.8433 41.7028 31.654C41.7028 30.4647 40.7389 29.5007 39.5495 29.5007Z" fill="var(--primaryBackgroundColor)"/>
</svg>