<svg width="20" height="16" viewBox="0 0 20 16" fill="none" xmlns="http://www.w3.org/2000/svg">
    <path d="M3.04703 8.8031C2.70437 8.52196 2.25787 8.36943 1.79708 8.37609C1.33629 8.38275 0.895307 8.54811 0.562583 8.83901C0.229859 9.12991 0.0300067 9.52483 0.00311403 9.94455C-0.0237787 10.3643 0.124277 10.7777 0.417584 11.102L4.47131 14.9835C4.64103 15.146 4.84497 15.2754 5.0709 15.3642C5.29682 15.4529 5.54007 15.4991 5.78604 15.5C6.0307 15.5013 6.27316 15.4577 6.49901 15.3719C6.72486 15.286 6.92949 15.1596 7.10076 15.0002L19.4811 3.33899C19.6489 3.18148 19.7811 2.99535 19.8701 2.79122C19.9591 2.58709 20.0032 2.36897 19.9998 2.14931C19.9964 1.92965 19.9456 1.71275 19.8504 1.51099C19.7551 1.30923 19.6172 1.12657 19.4445 0.973431C19.2719 0.820294 19.0679 0.69968 18.8441 0.618477C18.6204 0.537275 18.3813 0.497072 18.1405 0.500166C17.8997 0.50326 17.662 0.549589 17.4408 0.636509C17.2197 0.723428 17.0195 0.849236 16.8516 1.00675L5.8043 11.4352L3.04703 8.8031Z" fill="#27AE60"/>
</svg>