<svg width="140" height="145" viewBox="0 0 154 159" fill="none" xmlns="http://www.w3.org/2000/svg">
            <path d="M39 78.1637C39.0359 63.8786 47.7838 53.7326 59.4358 52.1942C69.5102 50.8756 79.3696 56.3699 83.6001 65.6734C84.3889 67.395 83.9945 68.9333 82.5604 69.7025C81.1981 70.4351 79.7281 69.849 78.796 68.274C78.6884 68.0909 78.5808 67.8711 78.4733 67.688C77.1826 64.9775 75.2107 62.8164 72.8803 61.0216C63.738 54.0623 49.9349 58.0914 45.7761 68.97C42.3701 77.8706 45.7044 87.4306 53.8428 92.0824C54.2013 92.3022 54.5598 92.4853 54.9184 92.7051C56.4959 93.6574 57.0337 95.1958 56.3166 96.6243C55.5996 97.9795 54.0221 98.3825 52.4446 97.6133C50.401 96.6243 48.5367 95.3789 46.8875 93.8405C41.6889 89.0422 39.0717 83.0352 39 78.1637Z" fill="#7963E0" />
            <path d="M50.8552 145.094C50.8166 146.911 49.3862 148.264 47.5691 148.264C45.7521 148.225 44.3604 146.833 44.3604 145.016C44.3604 143.199 45.9454 141.653 47.7238 141.73C49.5021 141.808 50.8939 143.315 50.8552 145.094Z" fill="#7963E0" />
            <path d="M47.6073 12.6444C49.6177 12.6444 51.628 12.6057 53.6383 12.6444C55.7259 12.683 57.1177 13.8815 57.2337 15.6985C57.3497 17.3609 56.1125 18.9073 54.1409 19.1393C52.5172 19.3326 50.8548 19.2552 49.231 19.2552C46.7568 19.2552 44.2826 19.3326 41.847 19.2166C39.1794 19.1006 37.5557 17.2063 38.1743 15.0413C38.5995 13.5335 39.682 12.6444 41.3444 12.6057C43.3934 12.6057 45.5197 12.6444 47.6073 12.6444Z" fill="#7963E0" />
            <path d="M95.1982 16.3169C95.1982 6.99988 88.2008 0.00241625 78.9224 0.00241625C58.0459 0.00241625 37.1695 0.00241625 16.2931 0.00241625C15.2493 0.00241625 14.2441 -0.0362438 13.2389 0.195717C5.42959 1.78078 0.0558423 8.237 0.0171822 16.201C-0.0214778 33.7913 0.0171822 51.3816 0.0171822 68.9719C0.0171822 93.2118 0.0171822 117.413 0.0171822 141.653C0.0171822 146.099 1.40895 149.926 4.34711 153.212C6.70538 155.841 9.72086 157.271 13.0456 158.199C36.087 158.199 59.1284 158.199 82.2085 158.199C82.4018 158.122 82.5951 158.045 82.7884 157.967C90.9456 155.532 95.2369 149.733 95.2369 141.189C95.2369 131.64 95.2369 122.052 95.2369 112.503C95.1982 80.3767 95.2369 48.3661 95.1982 16.3169ZM88.5874 136.472H88.5487C88.5874 138.908 88.742 141.305 88.3554 143.702C87.6209 148.302 83.9868 151.511 79.2703 151.55C69.9146 151.588 60.5588 151.588 51.2031 151.588C39.8371 151.588 28.471 151.434 17.1049 151.666C11.4606 151.782 6.47341 147.916 6.70537 141.15C6.74403 139.604 6.7827 138.057 6.74404 136.511H6.66672V19.2938C6.62806 17.6701 6.66672 16.085 6.93734 14.4613C7.67188 9.86073 11.3059 6.65195 16.0225 6.61329C25.5328 6.57463 35.0432 6.57463 44.5536 6.57463C55.765 6.57463 66.9764 6.72926 78.1878 6.4973C83.8322 6.38132 88.8193 10.2473 88.5874 17.0128C88.5487 17.7474 88.5487 18.4819 88.5487 19.2165H88.626V136.472H88.5874Z" fill="#7963E0" />
            <path d="M26.0347 29.6544H8.6377V47.0514H26.0347V29.6544Z" fill="#7963E0" />
            <path d="M46.1382 29.6544H28.7412V47.0514H46.1382V29.6544Z" fill="#7963E0" />
            <path d="M66.2418 29.6544H48.8447V47.0514H66.2418V29.6544Z" fill="#7963E0" />
            <path d="M86.3443 29.6544H68.9473V47.0514H86.3443V29.6544Z" fill="#7963E0" />
            <path d="M46.2544 49.9899H28.8574V67.3869H46.2544V49.9899Z" fill="#7963E0" />
            <path d="M154 107.248C153.457 110.313 152.769 113.305 151.393 116.153C149.98 119.038 148.242 121.67 145.96 123.941C142.882 127.006 139.876 130.142 136.69 133.135C131.257 138.254 124.703 140.922 117.206 140.958C100.693 141.03 84.1426 140.994 67.6288 140.958C62.3053 140.958 58.6477 136.524 59.5893 131.224C60.4946 125.924 64.5144 122.138 69.9828 121.309C76.61 120.3 83.2372 119.218 89.8644 118.172C90.0093 118.136 90.1542 118.1 90.299 118.064C90.1904 117.56 89.792 117.379 89.5385 117.091C78.1672 105.77 66.7959 94.4491 55.4246 83.1283C52.5999 80.3521 51.3324 77.0352 52.3464 73.1414C54.3744 65.3538 63.6453 62.9022 69.5844 68.6347C72.2643 71.2306 74.9079 73.8985 77.5516 76.5665C78.2396 77.2515 78.5294 77.3597 79.0001 76.3502C81.6076 70.834 88.0175 68.8871 93.3772 71.9156C93.9929 72.2761 94.2464 72.204 94.5361 71.555C96.1295 67.8776 98.9904 65.8225 102.938 65.3177C105.147 65.0293 107.175 65.6062 109.094 66.6878C109.746 67.0844 109.963 67.0483 110.289 66.2912C113.259 59.4049 121.987 57.8186 127.129 63.2987C132.199 68.6707 137.124 74.1509 142.085 79.6311C144.512 82.3351 147.155 84.8589 149.183 87.8874C151.646 91.5648 153.203 95.5668 153.819 99.9293C153.855 100.182 153.928 100.434 154 100.686C154 102.922 154 105.085 154 107.248Z" fill="#7963E0" />
            <path d="M93.6169 135.991C101.789 135.991 109.96 136.027 118.132 135.955C123.845 135.883 128.835 133.828 132.993 129.97C136.32 126.869 139.574 123.624 142.72 120.307C150.783 111.798 151.144 98.349 143.443 89.4793C138.561 83.8546 133.463 78.4463 128.437 72.9298C126.738 71.091 125.074 69.2161 123.339 67.3772C122.001 65.9711 119.976 65.6105 118.241 66.4398C116.469 67.2691 115.493 68.6752 115.456 70.6943C115.42 72.1005 116.107 73.1461 116.975 74.1917C118.494 76.0306 117.662 78.3742 115.456 78.7708C114.335 78.9511 113.504 78.4102 112.745 77.6891C111.081 76.0666 109.454 74.4081 107.791 72.7856C105.73 70.8025 102.946 70.7665 101.065 72.6774C99.1852 74.5883 99.2575 77.3286 101.246 79.3837C102.765 80.9341 104.32 82.4485 105.838 83.9989C106.164 84.3594 106.525 84.72 106.778 85.1166C107.465 86.1261 107.429 87.1717 106.742 88.1453C106.091 89.0827 105.007 89.4793 103.85 89.1908C103.09 89.0106 102.548 88.4697 102.006 87.9289C98.679 84.6118 95.3886 81.2947 92.0621 78.0136C89.8203 75.8142 86.566 76.0666 84.8304 78.4824C83.4564 80.3933 83.7096 82.7369 85.5175 84.5757C88.7717 87.8568 92.0259 91.0658 95.2801 94.3468C95.6779 94.7434 96.0756 95.1761 96.3649 95.6448C97.305 97.1952 96.5095 99.0701 94.7739 99.5749C93.4361 99.9715 92.4598 99.2864 91.592 98.385C83.2757 90.0922 74.9954 81.8355 66.6791 73.5427C66.209 73.074 65.7028 72.6053 65.1605 72.2447C63.678 71.2712 62.0509 71.127 60.4599 71.9923C58.8689 72.8577 58.0373 74.2638 58.0011 76.1027C57.965 77.6891 58.7966 78.8429 59.8814 79.8885C72.4282 92.3998 84.9751 104.911 97.522 117.386C97.8112 117.675 98.1005 117.963 98.3897 118.252C99.1491 119.081 99.6553 120.018 99.2575 121.208C98.8598 122.434 97.9558 123.011 96.7626 123.191C94.2316 123.588 91.7367 123.984 89.2056 124.381C83.0587 125.355 76.9118 126.292 70.8011 127.302C68.1977 127.734 66.426 129.213 65.6667 131.736C64.835 134.441 65.9921 135.991 68.7763 135.955C77.0926 135.955 85.3367 135.991 93.6169 135.991Z" fill="#F4F4F4" />
</svg>