<svg width="20" height="16" viewBox="0 0 20 16" fill="none" xmlns="http://www.w3.org/2000/svg">
<path d="M3.04703 8.56409C2.70437 8.28295 2.25787 8.13041 1.79708 8.13707C1.33629 8.14373 0.895307 8.3091 0.562583 8.6C0.229859 8.8909 0.0300067 9.28582 0.00311403 9.70554C-0.0237787 10.1253 0.124277 10.5387 0.417584 10.863L4.47131 14.7445C4.64103 14.907 4.84497 15.0364 5.0709 15.1252C5.29682 15.2139 5.54007 15.2601 5.78604 15.261C6.0307 15.2623 6.27316 15.2187 6.49901 15.1328C6.72486 15.047 6.92949 14.9206 7.10076 14.7612L19.4811 3.09998C19.6489 2.94246 19.7811 2.75633 19.8701 2.55221C19.9591 2.34808 20.0032 2.12996 19.9998 1.9103C19.9964 1.69063 19.9456 1.47373 19.8504 1.27197C19.7551 1.07022 19.6172 0.887555 19.4445 0.734418C19.2719 0.58128 19.0679 0.460667 18.8441 0.379464C18.6204 0.298261 18.3813 0.258058 18.1405 0.261152C17.8997 0.264246 17.662 0.310575 17.4408 0.397495C17.2197 0.484414 17.0195 0.610223 16.8516 0.767735L5.8043 11.1962L3.04703 8.56409Z" fill="white"/>
</svg>
